<svg width="100" height="100" viewBox="0 0 100 100" fill="none" xmlns="http://www.w3.org/2000/svg">
<mask id="mask0_32_36" style="mask-type:alpha" maskUnits="userSpaceOnUse" x="12" y="13" width="75" height="75">
<circle cx="49.5" cy="50.5" r="37.5" fill="black"/>
</mask>
<g mask="url(#mask0_32_36)">
<rect x="12" y="-2" width="2" height="100" fill="#F90F08"/>
<rect x="16" y="-2" width="2" height="100" fill="#F90F08"/>
<rect x="20" y="-2" width="2" height="100" fill="#F90F08"/>
<rect x="24" y="-2" width="2" height="100" fill="#F90F08"/>
<rect x="28" y="-2" width="2" height="100" fill="#F90F08"/>
<rect x="32" y="-2" width="2" height="100" fill="#F90F08"/>
<rect x="36" y="-2" width="2" height="100" fill="#F90F08"/>
<rect x="40" y="-2" width="2" height="100" fill="#F90F08"/>
<rect x="44" y="-2" width="2" height="100" fill="#F90F08"/>
<rect x="48" y="-2" width="2" height="100" fill="#F90F08"/>
<rect x="52" y="-2" width="2" height="100" fill="#F90F08"/>
<rect x="56" y="-2" width="2" height="100" fill="#F90F08"/>
<rect x="60" y="-2" width="2" height="100" fill="#F90F08"/>
<rect x="64" y="-2" width="2" height="100" fill="#F90F08"/>
<rect x="68" y="-2" width="2" height="100" fill="#F90F08"/>
<rect x="72" y="-2" width="2" height="100" fill="#F90F08"/>
<rect x="76" y="-2" width="2" height="100" fill="#F90F08"/>
<rect x="80" y="-2" width="2" height="100" fill="#F90F08"/>
<rect x="84" y="-2" width="2" height="100" fill="#F90F08"/>
</g>
</svg>
