<svg width="100" height="100" viewBox="0 0 100 100" fill="none" xmlns="http://www.w3.org/2000/svg">
<path d="M62.9212 35.1664C62.9663 35.2265 63.0264 35.2716 63.1016 35.2716C63.8234 35.3919 64.2744 35.843 64.5301 36.4745C64.7706 37.076 64.7105 37.6925 64.3797 38.2789C64.079 38.8052 63.6279 39.1209 63.0264 39.2262C62.8911 39.2562 62.7558 39.3164 62.5603 39.3765C63.0114 39.6622 63.4324 39.8727 63.688 40.3238C63.9436 40.7749 63.9286 41.2561 64.0188 41.7372C64.079 41.5267 64.1993 41.3463 64.2895 41.1658C64.4248 40.9102 64.6052 40.6847 64.8609 40.5494C65.1165 40.414 65.357 40.2486 65.6578 40.1735C66.3344 40.0381 66.8757 40.2486 67.402 40.6697C68.2139 41.3012 68.3192 42.6093 67.7328 43.3762C67.432 43.7821 67.0561 44.128 66.4998 44.2032C66.3344 44.2182 66.184 44.2934 65.9284 44.3535C67.1313 44.8648 67.5824 45.782 67.3418 46.9398C67.1915 47.6916 66.8156 48.2629 65.3119 48.6088C65.8232 48.8644 66.2291 49.1802 66.4547 49.6613C66.6953 50.1575 66.7253 50.7138 66.6051 51.21C66.5148 51.631 66.2743 52.0521 65.8833 52.3227C65.5224 52.5633 65.1315 52.7888 64.6503 52.7738C64.7857 52.8941 64.8759 53.0294 65.0262 53.1196C65.342 53.3151 65.5525 53.6158 65.7179 53.9617C65.8683 54.2624 65.9134 54.5631 65.9284 54.8939C65.9585 55.4803 65.6728 55.9164 65.327 56.3223C64.9811 56.7283 64.5451 56.9689 63.9888 56.9839C63.9436 56.9839 63.8985 56.9839 63.8685 57.0441C64.7255 57.4801 65.2668 58.1417 65.3119 59.1492C65.5826 58.6379 65.9134 58.232 66.4397 58.0064C66.981 57.7809 67.5523 57.7658 68.0786 58.0365C69.0108 58.5176 69.3416 59.3446 69.1161 60.3069C68.9056 61.2242 68.1387 61.8406 66.996 61.7504C66.4697 61.7053 66.0337 61.4647 65.7029 61.0738C65.3721 60.6979 65.2217 60.2318 65.2217 59.7055C65.0112 60.0964 64.7857 60.4423 64.4398 60.7129C64.079 60.9836 63.673 61.1189 63.1768 61.2242C63.7331 61.5249 64.1541 61.8858 64.3195 62.4271C64.4849 62.9684 64.515 63.5698 64.1993 64.066C63.6279 64.9682 62.9663 65.3441 61.7784 65.0434C60.8763 64.8178 60.3801 64.0359 60.4101 63.0586C60.4402 62.0963 61.0266 61.2091 62.3197 61.1189C62.3197 61.0136 62.2746 60.9385 62.1844 60.8934C61.5378 60.5926 61.2371 60.0363 61.0567 59.3897C61.0417 59.3446 61.0266 59.2995 60.9965 59.1943C60.8011 59.5702 60.5304 59.8258 60.2447 60.0814C59.944 60.3671 59.523 60.3671 59.1621 60.5926C59.7786 60.9535 60.1395 61.4497 60.2598 62.0963C60.3951 62.7428 60.2447 63.3292 59.8388 63.8254C59.4328 64.3517 58.8464 64.5622 58.1848 64.6524C58.7712 64.9381 59.1922 65.3591 59.3576 65.9756C59.4628 66.3816 59.4779 66.8176 59.3125 67.2236C58.8915 68.3213 58.0043 68.6821 56.9067 68.5017C56.1699 68.3814 55.5083 67.5093 55.4482 66.6522C55.388 65.7501 55.8692 64.7727 57.3427 64.5171C57.0871 64.2164 56.6962 64.0961 56.4706 63.7502C56.2601 63.4194 56.1248 63.0586 56.0196 62.5925C55.8842 62.9383 55.6888 63.1488 55.4933 63.3292C55.2377 63.5848 54.9219 63.7653 54.561 63.8705C54.3806 63.9307 54.3505 64.0209 54.4859 64.1412C54.6212 64.2615 54.7565 64.3818 54.8618 64.5171C55.2828 65.0584 55.4331 65.6298 55.2377 66.3214C55.0723 66.953 54.6813 67.374 54.14 67.6747C53.4183 68.0506 52.7116 67.9604 52.035 67.5394C51.7944 67.389 51.6139 67.1334 51.4485 66.8928C51.223 66.5771 51.1629 66.2011 51.0576 65.7501C50.6667 66.8327 49.9149 67.2838 48.8623 67.3589C49.1931 67.5995 49.5841 67.7348 49.8096 68.0656C50.0351 68.3964 50.1855 68.7423 50.2156 69.1482C50.2457 69.5693 50.1404 69.9602 49.9149 70.306C49.4487 71.0127 48.5917 71.4338 47.7947 71.1781C46.7422 70.8473 46.2009 70.0504 46.3212 68.9979C46.4114 68.2611 46.8475 67.4492 48.4263 67.2386C47.9601 66.9981 47.5241 66.8026 47.2685 66.3665C47.0129 65.9455 46.9076 65.4794 46.8625 64.9682C46.667 65.4193 46.4565 65.8553 46.0355 66.126C45.6145 66.3816 45.1784 66.562 44.6522 66.5921C45.6596 67.0732 46.1558 67.8251 45.9754 68.9377C45.4341 70.3361 44.5319 70.5466 43.6899 70.4113C42.8027 70.276 42.2013 69.479 42.096 68.7272C42.0058 68.0957 42.2614 67.5694 42.6824 67.1184C43.1185 66.6522 43.7049 66.562 44.3063 66.4868C43.765 66.3365 43.344 66.0357 43.0583 65.5997C42.7576 65.1636 42.6824 64.6374 42.7125 64.1111C42.5922 64.081 42.5922 64.1412 42.5922 64.1863C42.4719 64.7727 42.096 65.1636 41.6149 65.4794C41.1036 65.7952 40.5473 65.8553 39.9909 65.6598C39.4948 65.4794 39.0737 65.1787 38.8181 64.6825C38.6678 64.4118 38.6227 64.1261 38.5475 63.8405C38.5174 63.7502 38.5324 63.645 38.4272 63.5247C38.2167 64.2464 37.7054 64.6524 37.0589 64.8479C36.6379 64.9682 36.1717 64.9682 35.7658 64.7426C34.8486 64.2464 34.4727 63.6149 34.623 62.5473C34.7583 61.6301 35.6304 61.0136 36.4274 60.9685C37.0739 60.9234 37.6002 61.179 38.0212 61.6151C38.4573 62.0662 38.5324 62.6676 38.5475 63.2841C38.8783 62.2617 39.5699 61.7204 40.6225 61.555C39.8556 61.1791 39.3745 60.6227 39.2241 59.7957C39.0587 59.8258 38.9835 59.9611 38.9083 60.0664C38.4723 60.6528 37.4047 60.9385 36.7281 60.743C35.7056 60.4272 35.0741 59.3747 35.2545 58.3974C35.3899 57.6155 35.8259 57.0291 36.6228 56.7885C36.7431 56.7434 36.8634 56.6682 36.9987 56.6682C37.0439 56.6682 37.089 56.6381 37.104 56.578C37.104 56.5178 37.0739 56.4877 37.0138 56.4727C36.4274 56.2772 36.1266 55.8111 35.856 55.2999C35.7808 55.1495 35.8259 54.9691 35.7357 54.8187C35.6455 54.8338 35.5703 54.8789 35.5252 54.9541C35.1643 55.5104 34.623 55.751 34.0065 55.8562C33.5705 55.9314 33.1645 55.751 32.7886 55.5405C32.1571 55.1946 31.8564 54.6082 31.8112 53.9316C31.7661 53.27 31.9766 52.6836 32.533 52.2325C32.8939 51.9318 33.2998 51.8115 33.7208 51.7213C33.796 51.7062 33.8712 51.7213 33.9314 51.616C32.8337 51.3003 32.4277 50.4733 32.2924 49.3305C32.0368 49.947 31.721 50.383 31.1647 50.6236C30.6084 50.8492 30.037 50.8492 29.5257 50.5935C28.7439 50.1876 28.2627 49.4057 28.4582 48.4434C28.6536 47.5111 29.3453 46.9548 30.2926 46.8796C30.6685 46.8495 31.0143 46.9849 31.3451 47.1503C31.721 47.3307 31.9315 47.6314 32.112 47.9773C32.2774 48.308 32.3225 48.684 32.3676 49.0599C32.5781 48.6088 32.7736 48.1427 33.2247 47.887C33.6457 47.6465 34.0817 47.4209 34.608 47.4209C34.187 47.2104 33.796 47.03 33.5254 46.624C33.2698 46.2481 33.0743 45.8421 33.0141 45.376C32.8036 45.8571 32.518 46.2481 32.0368 46.4887C31.5707 46.7292 31.0895 46.8345 30.5933 46.6541C29.3603 46.218 29.0747 45.2858 29.1799 44.4588C29.3152 43.5115 30.1573 42.9251 30.879 42.8198C31.4805 42.7296 31.9917 42.9552 32.4277 43.316C32.8788 43.6919 33.0292 44.2332 33.1194 44.8046C33.2848 44.3836 33.5554 44.0378 33.8562 43.7521C34.1719 43.4514 34.623 43.4062 35.044 43.2258C34.187 42.6544 33.6757 41.9477 33.9013 40.9102C34.1569 39.7524 35.1042 39.2863 35.8259 39.2412C36.3823 39.1961 36.8634 39.4367 37.2844 39.7825C37.7205 40.1434 37.8558 40.6546 38.0362 41.1508C38.1716 41.1809 38.1415 41.0756 38.1866 41.0305C38.4723 40.5794 38.8482 40.2336 39.3294 40.0231C39.4346 39.978 39.5399 39.978 39.6451 39.9629C39.7353 39.9479 39.8256 39.9479 39.8406 39.8427C39.8707 39.7224 39.7804 39.7073 39.7053 39.6622C39.3143 39.3765 39.0136 39.0307 38.8783 38.5345C38.7129 37.9631 38.7429 37.4218 38.9986 36.8956C39.2391 36.4144 39.6301 36.1287 40.1112 35.9032C40.5022 35.7077 40.9082 35.7528 41.2991 35.7678C41.4795 35.7829 41.66 35.9182 41.8404 36.0084C42.4569 36.3091 42.8027 36.8354 42.9681 37.482C42.9832 37.5421 42.9832 37.6023 43.0433 37.6474C43.2688 37.3316 43.5395 37.061 43.8252 36.7903C44.1259 36.5046 44.562 36.5497 44.8777 36.3091C43.7951 35.5724 43.5696 34.6852 43.7801 33.9635C44.1259 32.7305 45.0732 32.2494 46.0205 32.3396C46.8775 32.4298 47.7346 32.8959 48.0053 34.4898C48.5165 33.347 49.3886 32.926 50.5614 33.0463C51.4786 33.4372 52.1552 34.0387 52.2004 35.1514C52.6966 34.2492 53.3732 33.7229 54.4257 33.7981C55.5083 33.8733 56.0647 34.5349 56.3955 35.5273C56.8917 34.8657 57.463 34.3995 58.3201 34.3845C58.0645 34.2191 57.854 34.0387 57.6435 33.8432C57.3277 33.5726 57.1773 33.2117 57.1172 32.8207C57.0871 32.5651 57.0871 32.3095 57.1172 32.0689C57.1623 31.7532 57.3127 31.4524 57.5232 31.2119C58.2148 30.3849 59.3877 30.2947 60.2297 30.866C60.9364 31.3472 61.192 32.3396 60.9214 33.1215C60.7109 33.753 60.2598 34.1289 59.6734 34.3845C59.5681 34.4296 59.4628 34.4146 59.3576 34.4296C59.2523 34.4447 59.1321 34.3995 59.0418 34.5198C59.523 34.7153 59.8688 35.0461 60.1395 35.4822C60.4101 35.9182 60.4703 36.3843 60.4853 36.8805C60.6056 36.7151 60.6206 36.5046 60.6958 36.3392C61.0717 35.5874 61.7032 35.3017 62.4851 35.2265C62.6806 35.1664 62.8009 35.1814 62.9212 35.1664ZM41.1337 61.6752C41.7502 61.8858 42.2163 62.2767 42.517 62.8481C42.6674 63.1338 42.6674 63.4495 42.7426 63.7502C42.7576 63.8104 42.7426 63.9006 42.8779 63.9006C42.923 63.4495 43.2388 63.1638 43.5245 62.8631C43.8252 62.5473 44.2913 62.5323 44.6973 62.3068C44.3665 62.1714 44.156 61.9609 43.9605 61.7504C43.7199 61.4948 43.5245 61.2091 43.4944 60.8483C43.4794 60.743 43.4192 60.6227 43.314 60.6077C43.2087 60.5776 43.1937 60.7129 43.1636 60.7731C42.7877 61.3144 42.2765 61.6001 41.6149 61.6301C41.4495 61.6301 41.2841 61.6151 41.1337 61.6752ZM63.4023 45.4061C63.688 45.0001 63.9888 44.6843 64.3647 44.4888C64.7556 44.2783 65.1916 44.3235 65.6127 44.2483C65.4022 44.2032 65.2217 44.1129 65.0714 44.0077C64.5902 43.6919 64.1993 43.316 64.109 42.7146C64.079 42.5492 63.9737 42.3988 63.8835 42.1582C63.5527 43.0003 62.9663 43.4213 62.1844 43.6017C62.8159 44.0528 63.2219 44.5941 63.4023 45.4061ZM36.6228 49.4057C37.0138 48.8494 37.3897 48.3682 38.0513 48.2028C38.1415 48.1878 38.2167 48.1577 38.2317 48.0524C38.2467 47.9622 38.1565 47.9472 38.1114 47.9021C37.7205 47.5863 37.4348 47.2104 37.3145 46.7142C37.2844 46.5789 37.2243 46.4436 37.1641 46.2782C36.698 47.06 36.0515 47.466 35.1643 47.466C35.1042 47.466 35.014 47.466 35.014 47.6013C35.9612 47.7968 36.4123 48.5035 36.6228 49.4057ZM34.2321 51.6912C34.3223 51.7664 34.3373 51.7964 34.3524 51.7964C34.9087 51.9017 35.3147 52.2325 35.6154 52.6986C35.7357 52.8941 35.8259 53.0896 35.856 53.3301C35.8861 53.4805 36.0064 53.5106 36.1116 53.3903C36.1417 53.3602 36.1567 53.3001 36.1868 53.27C36.4574 52.9542 36.7131 52.6535 37.1491 52.5182C37.2995 52.4731 37.4649 52.458 37.6303 52.3678C37.3596 52.0671 37.0589 51.8265 36.8183 51.5408C36.5627 51.2401 36.6078 50.8191 36.3672 50.4883C35.9161 51.3003 35.2245 51.6762 34.2321 51.6912ZM58.8464 38.6548C58.8614 38.73 58.8915 38.745 58.9215 38.7601C59.4027 39.0307 59.7485 39.4216 59.9139 39.9629C59.9741 40.1584 60.0643 40.1584 60.2147 40.0231C60.6808 39.6171 61.1619 39.2863 61.8235 39.3164C61.8987 39.3164 61.9889 39.3164 62.0792 39.2562C61.8235 39.2111 61.6281 39.0307 61.4176 38.9254C61.2071 38.8202 61.0717 38.6548 60.9514 38.4593C60.7109 38.0985 60.6056 37.7075 60.5455 37.2865C60.5304 37.2264 60.5154 37.1512 60.4552 37.1512C60.3801 37.1512 60.365 37.2113 60.35 37.2715C60.1696 37.8128 59.7936 38.1887 59.2824 38.3992C59.117 38.4593 58.9817 38.5495 58.8464 38.6548ZM45.7949 62.5473C46.2009 62.7428 46.4565 63.0586 46.667 63.4194C46.8775 63.7803 46.9527 64.1713 47.058 64.5923C47.3437 63.7202 47.9902 63.2992 48.8022 63.0886C48.7871 63.0435 48.8022 63.0285 48.7871 63.0135C48.2458 62.6676 47.8399 62.2316 47.6594 61.6151C47.6444 61.5399 47.5842 61.4647 47.4639 61.4647C47.1031 62.0963 46.4866 62.3519 45.7949 62.5473ZM51.223 65.2388C51.5237 64.6073 51.8846 64.081 52.5913 63.8705C52.877 63.7803 52.892 63.6751 52.6665 63.4646C52.3056 63.1638 52.0049 62.818 51.9297 62.3368C51.9147 62.2917 51.9147 62.2316 51.8545 62.2316C51.7793 62.2165 51.7192 62.2466 51.6741 62.3068C51.3583 62.6977 50.9975 63.0135 50.4862 63.1488C50.3509 63.1939 50.1855 63.1939 50.0502 63.3142C50.411 63.5247 50.6817 63.7803 50.8922 64.1111C51.0726 64.472 51.1478 64.8479 51.223 65.2388ZM37.3746 45.1504C37.4799 45.1053 37.4949 45.0602 37.51 45.0151C37.7656 44.5039 38.1866 44.2182 38.6978 44.0227C38.773 43.9927 38.8783 44.0227 38.8933 43.9024C38.8933 43.7972 38.8482 43.737 38.758 43.6769C38.5174 43.4965 38.337 43.2559 38.2167 42.9552C38.1415 42.7747 38.1114 42.5943 38.0663 42.4139C38.0513 42.3236 38.0062 42.2184 37.9009 42.2184C37.7957 42.2184 37.8107 42.3086 37.7806 42.3687C37.4649 42.8198 37.104 43.1807 36.5326 43.286C36.4123 43.316 36.277 43.3461 36.2018 43.4814C36.8484 43.8573 37.2243 44.4287 37.3746 45.1504ZM48.9074 36.9106C48.5766 36.655 48.3661 36.3843 48.2007 36.0686C48.0353 35.7528 48.0504 35.3919 47.9902 35.001C47.7647 35.422 47.5391 35.7378 47.2534 36.0235C46.9527 36.3242 46.5167 36.3543 46.1257 36.5497C46.652 36.9557 47.1632 37.3316 47.3286 38.0834C47.7496 37.4669 48.2609 37.1211 48.9074 36.9106ZM41.0435 57.2997C40.3518 56.9388 40.0511 56.3524 39.8556 55.6908C39.2842 56.2923 38.9986 56.5329 38.1565 56.7283C38.4121 57.014 38.773 57.1343 38.9986 57.42C39.2241 57.7207 39.2993 58.0966 39.4948 58.4425C39.8256 57.9162 40.2015 57.6455 41.0435 57.2997ZM60.1545 56.3675C60.3049 56.4878 60.3951 56.593 60.5003 56.6832C60.8011 56.9539 61.0417 57.2696 61.1018 57.7057C61.1168 57.856 61.192 57.9914 61.3273 58.1267C61.6882 57.3899 62.2897 57.0591 63.0866 56.9088C62.5753 56.6381 62.1694 56.3374 61.9138 55.8863C61.8536 55.781 61.8686 55.6457 61.7935 55.5555C61.7183 55.4653 61.6581 55.3901 61.5529 55.5405C61.207 55.9615 60.7409 56.2021 60.1545 56.3675ZM55.2828 59.8258C55.373 59.931 55.4181 60.0062 55.4783 60.0664C55.7639 60.4272 56.1398 60.728 56.1699 61.2242C56.1699 61.3144 56.215 61.4347 56.3804 61.4647C56.7413 60.8182 57.3277 60.4874 58.0946 60.337C57.433 59.9611 57.0119 59.48 56.8315 58.7883C56.5308 58.9838 56.4105 59.2845 56.1699 59.4348C55.9143 59.6303 55.6437 59.7506 55.2828 59.8258ZM43.765 40.3539C43.5696 40.1133 43.3891 39.8878 43.2087 39.6773C43.0283 39.4517 43.0884 39.0908 42.8478 38.8653C42.6524 39.1961 42.3967 39.4367 42.1111 39.6472C41.8254 39.8577 41.4645 39.9178 41.0585 40.0081C41.7502 40.3238 42.1111 40.8501 42.3967 41.5568C42.6524 40.835 43.2237 40.6245 43.765 40.3539ZM63.1618 46.6691C62.8159 47.2104 62.4551 47.6013 61.9288 47.7968C61.7935 47.8419 61.8386 47.9171 61.8837 47.9923C61.9138 48.0374 61.9739 48.0675 62.019 48.1126C62.3047 48.3532 62.5302 48.6388 62.6505 48.9847C62.6806 49.0899 62.7558 49.1801 62.831 49.3004C63.0565 49.0148 63.3272 48.8644 63.5978 48.699C63.8685 48.5336 64.1993 48.5186 64.515 48.4434C63.7782 48.0825 63.3723 47.4961 63.1618 46.6691ZM56.2601 36.8805C55.8993 37.4669 55.4331 37.7677 54.8467 38.0383C55.4632 38.3691 55.6136 38.9555 55.8993 39.4818C56.185 39.0457 56.5458 38.745 57.027 38.6247C57.1773 38.5796 57.2676 38.4894 57.4029 38.3541C56.8165 38.0383 56.5007 37.5421 56.2601 36.8805ZM52.1853 35.9032C51.8545 36.3843 51.5989 36.7903 51.1478 37.0158C51.0576 37.061 50.9373 37.076 50.8471 37.1361C50.7569 37.1963 50.6817 37.2715 50.817 37.3767C51.0275 37.5572 51.1629 37.7827 51.3433 37.9932C51.4937 38.1736 51.5087 38.4293 51.7342 38.6097C51.8545 38.339 52.065 38.1736 52.2906 38.0233C52.5161 37.8729 52.8168 37.8128 53.0574 37.6173C52.5462 37.1812 52.2304 36.655 52.1853 35.9032ZM44.983 58.0816C44.9078 57.9914 44.8627 57.9312 44.7875 57.8861C44.4717 57.6606 44.3214 57.2997 44.1109 56.999C43.9605 56.7885 43.9755 56.7734 43.7801 56.9388C43.5545 57.1343 43.314 57.2847 43.0433 57.42C42.8779 57.4952 42.6975 57.5403 42.5321 57.6455C43.0884 58.0365 43.4192 58.5477 43.5545 59.1943C43.8101 58.9988 43.9304 58.7131 44.1861 58.5477C44.4567 58.3823 44.6672 58.1718 44.983 58.0816ZM40.1112 54.1872C40.412 53.7061 40.7578 53.4204 41.1788 53.2099C41.4495 53.0745 41.4645 53.0294 41.254 52.8189C40.9984 52.5633 40.7879 52.2926 40.6826 51.9318C40.6074 51.6611 40.5172 51.6311 40.3067 51.8566C40.0361 52.1423 39.7353 52.3829 39.3294 52.458C39.2241 52.4731 39.1339 52.5332 39.0737 52.6385C39.5549 53.0144 39.9759 53.4504 40.1112 54.1872ZM62.034 53.5557C62.5453 53.1046 62.9964 52.6836 63.688 52.6535C63.5527 52.5934 63.5076 52.4881 63.4023 52.428C63.1016 52.2776 62.9061 52.037 62.7407 51.7664C62.6656 51.6311 62.6355 51.4657 62.5302 51.3604C62.4701 51.3153 62.44 51.2401 62.3648 51.3303C62.019 51.7062 61.583 51.9618 61.0567 52.2175C61.613 52.5032 61.7784 53.0445 62.034 53.5557ZM53.4784 59.6153C53.4634 59.5551 53.4784 59.5401 53.4634 59.5401C53.1476 59.2243 52.8018 58.9387 52.6364 58.5026C52.6063 58.4124 52.486 58.3823 52.3658 58.4876C52.0801 58.7281 51.8094 58.9988 51.4185 59.089C51.2531 59.1341 51.238 59.2695 51.3734 59.3747C51.6591 59.6303 51.8846 59.931 51.9598 60.322C51.9748 60.4272 52.05 60.5175 52.1552 60.5626C52.5161 60.1416 52.877 59.7055 53.4784 59.6153ZM40.8931 49.7215C41.1938 49.2704 41.6299 49.0148 42.081 48.7742C41.8103 48.4133 41.5096 48.1126 41.3743 47.7066C41.3292 47.5562 41.2089 47.5412 41.0886 47.6765C40.8179 47.9472 40.5022 48.1427 40.1263 48.2329C40.0361 48.2479 39.9609 48.278 39.9308 48.3832C39.8857 48.5035 40.006 48.5186 40.0511 48.5637C40.412 48.8644 40.7277 49.2102 40.8931 49.7215ZM59.7034 41.9327C59.3576 42.3838 58.9667 42.6995 58.4103 42.8499C58.7862 43.2559 59.1922 43.6017 59.3426 44.2032C59.7485 43.707 60.2447 43.5115 60.8311 43.3461C60.2147 43.0303 59.959 42.5041 59.7034 41.9327ZM49.163 58.8334C48.8022 58.4725 48.4864 58.1568 48.306 57.7207C48.2609 57.6155 48.1556 57.6906 48.0955 57.7358C47.8399 57.9914 47.5391 58.1718 47.1933 58.2771C47.0429 58.3222 47.0129 58.4725 47.1181 58.5928C47.4188 58.8785 47.6293 59.2093 47.7196 59.6153C47.7647 59.7807 47.915 59.7957 48.0053 59.6604C48.2909 59.2695 48.6518 59.0138 49.163 58.8334ZM42.096 43.2408C41.7051 43.6919 41.2991 44.0378 40.6977 44.2332C41.1638 44.549 41.3893 45.0151 41.6449 45.4662C42.0208 45.0753 42.3817 44.7144 42.908 44.549C42.5772 44.128 42.2614 43.7521 42.096 43.2408ZM58.5306 56.1419C58.1547 55.7359 57.7938 55.3751 57.5683 54.8939C57.2375 55.1796 56.9518 55.4653 56.5458 55.6157C56.4105 55.6608 56.3955 55.7961 56.5007 55.9314C56.7563 56.2622 57.027 56.593 57.1022 57.0591C57.3277 56.8486 57.5081 56.6381 57.7186 56.4727C57.9442 56.3073 58.1848 56.172 58.5306 56.1419ZM55.2828 43.2258C55.388 43.2258 55.4181 43.1506 55.4482 43.1055C55.6587 42.88 55.9143 42.7446 56.2 42.6544C56.4105 42.5792 56.4255 42.5492 56.2752 42.3687C56.0346 42.0831 55.779 41.8274 55.6737 41.4515C55.6286 41.2711 55.5234 41.2561 55.4031 41.4064C55.1775 41.662 54.9069 41.8425 54.6212 42.0079C54.4257 42.1282 54.4107 42.1582 54.5761 42.3387C54.8016 42.5792 55.0422 42.8048 55.1625 43.1356C55.1625 43.1957 55.2226 43.2258 55.2828 43.2258ZM47.915 40.9253C47.4188 40.6696 47.3737 40.1584 47.073 39.7825C46.7121 40.1735 46.3663 40.5644 45.81 40.7599C46.1859 40.9704 46.3362 41.2861 46.5167 41.5869C46.6219 41.7673 46.652 41.7823 46.8024 41.662C47.1332 41.3914 47.479 41.1508 47.915 40.9253ZM52.0801 41.662C51.6139 41.4064 51.6139 40.8501 51.238 40.5644C50.9524 40.9553 50.5764 41.1809 50.1705 41.4064C50.4562 41.6921 50.7569 41.9628 50.9072 42.3236C50.9524 42.4439 51.0726 42.3838 51.1478 42.3086C51.3433 42.0831 51.5989 41.9477 51.8696 41.8274C51.9147 41.7974 51.9598 41.7372 52.0801 41.662ZM58.9516 46.4285C58.681 46.6541 58.4705 46.8946 58.1697 47.03C58.0043 47.1052 58.0043 47.1954 58.1096 47.3457C58.2449 47.5262 58.3953 47.7066 58.4855 47.9021C58.5607 48.0524 58.6509 48.1727 58.7862 48.2629C59.0569 48.0675 59.2674 47.8419 59.5831 47.7517C59.8087 47.6916 59.8087 47.5562 59.6282 47.4059C59.3275 47.1503 59.102 46.8345 58.9516 46.4285ZM58.3201 50.7439C58.1848 50.789 58.1246 50.8642 58.0494 50.9394C57.884 51.1048 57.6886 51.2401 57.4931 51.3754C57.3127 51.4957 57.2976 51.5108 57.433 51.6912C57.5833 51.9017 57.7337 52.1122 57.8389 52.3378C57.869 52.4129 57.9141 52.5182 58.0344 52.5483C58.29 52.1573 58.7862 52.0821 59.117 51.7664C58.7862 51.4506 58.4855 51.1649 58.3201 50.7439ZM45.2987 53.7512C45.3288 53.6609 45.2236 53.6309 45.1634 53.5858C44.9679 53.4053 44.8326 53.1948 44.7274 52.9542C44.6672 52.8189 44.5469 52.7888 44.4717 52.9091C44.3063 53.1497 44.0357 53.1948 43.8252 53.3151C43.6147 53.4354 43.5996 53.4354 43.765 53.6158C43.9755 53.8414 44.1409 54.097 44.2913 54.3526C44.3966 54.518 44.4266 54.533 44.577 54.3977C44.7725 54.2173 44.9529 54.0068 45.2236 53.9166C45.2987 53.9015 45.2987 53.8414 45.2987 53.7512ZM46.7723 45.1354C46.6971 45.0302 46.5918 44.9399 46.5618 44.8196C46.5167 44.6843 46.4114 44.5791 46.3663 44.4437C46.3212 44.2934 46.2159 44.2633 46.0656 44.3686C45.8701 44.5039 45.6746 44.6693 45.4341 44.7595C45.2386 44.8497 45.2236 44.955 45.3739 45.1204C45.5092 45.2707 45.6596 45.4061 45.7498 45.5865C45.825 45.782 45.9303 45.7369 46.0505 45.6466C46.2911 45.4963 46.5167 45.3158 46.7723 45.1354ZM52.3808 55.0443C52.5763 55.3751 52.7868 55.6457 52.877 55.9765C52.9071 55.9765 52.9221 55.9765 52.9371 55.9765C53.2529 55.8262 53.4634 55.5104 53.8092 55.3751C53.9145 55.345 53.8844 55.2247 53.7942 55.1345C53.6589 54.9841 53.4935 54.8488 53.4183 54.6383C53.3431 54.4579 53.2379 54.4729 53.0574 54.6082C52.8619 54.7736 52.6815 54.9691 52.3808 55.0443ZM45.389 48.6388C45.1033 48.8494 44.8025 49.0148 44.5018 49.1651C44.6071 49.4508 44.8476 49.6162 44.983 49.8568C45.1033 50.0673 45.1183 50.0673 45.3138 49.9019C45.4491 49.7966 45.5694 49.6914 45.7047 49.6012C45.8851 49.4809 45.9002 49.4508 45.7799 49.2704C45.6596 49.0749 45.5092 48.8794 45.389 48.6388ZM54.7264 45.8421C54.531 46.0075 54.3956 46.1729 54.2002 46.2782C54.0047 46.3834 54.0197 46.3984 54.1701 46.609C54.2754 46.7443 54.3806 46.8946 54.4558 47.06C54.5159 47.1803 54.6062 47.1954 54.6813 47.1352C54.8618 47.0149 55.0422 46.9097 55.2377 46.8195C55.2978 46.7894 55.4331 46.6992 55.3279 46.5939C55.1023 46.3684 54.952 46.0827 54.7264 45.8421ZM48.8623 53.8113C48.6668 53.9767 48.4563 54.097 48.2458 54.2173C48.1406 54.2774 48.1255 54.3526 48.1857 54.4128C48.3661 54.6082 48.4563 54.8488 48.5917 55.0743C48.6668 55.1946 48.727 55.1646 48.8172 55.0894C48.9676 54.939 49.1179 54.7887 49.2984 54.6834C49.4337 54.5932 49.4187 54.4879 49.3435 54.4128C49.163 54.2323 49.0879 53.9617 48.8623 53.8113ZM50.5013 45.1956C50.3509 45.1805 50.2908 45.2858 50.2005 45.3459C49.7344 45.7068 49.7495 45.7068 50.1103 46.1729C50.2156 46.3082 50.3208 46.3082 50.396 46.218C50.5464 46.0526 50.8922 46.1128 50.8772 45.782C50.8772 45.7669 50.8772 45.7519 50.8772 45.7519C50.7719 45.5715 50.6817 45.4061 50.5764 45.2407C50.5464 45.2106 50.5013 45.1956 50.5013 45.1956ZM53.8092 51.4506C54.0197 51.3454 54.2302 51.2251 54.4257 51.0597C54.5009 50.9995 54.5159 50.9544 54.4558 50.8792C54.3205 50.7138 54.2152 50.5334 54.0498 50.3981C54.0047 50.368 53.9746 50.3229 53.9295 50.353C53.7792 50.4582 53.6288 50.5785 53.4935 50.6988C53.4333 50.7589 53.4333 50.8642 53.4784 50.9243C53.5987 51.0897 53.6438 51.3003 53.8092 51.4506ZM49.4487 50.5635C49.6141 50.5033 49.7495 50.4131 49.8998 50.3229C50.0051 50.2477 50.0201 50.1425 49.975 50.0823C49.8998 49.962 49.8547 49.8117 49.7344 49.7365C49.6893 49.7064 49.6442 49.6312 49.5841 49.6763C49.4187 49.7666 49.2232 49.8417 49.148 50.0222C49.1029 50.1425 49.2232 50.2477 49.3134 50.353C49.3585 50.4131 49.3585 50.5033 49.4487 50.5635Z" fill="#FFB700"/>
<path d="M41.675 35.6175C40.5473 35.6626 39.6902 34.7003 39.7053 33.5876C39.7203 32.4448 40.5774 31.6028 41.7051 31.6028C42.8929 31.6028 43.735 32.52 43.7199 33.6477C43.7049 34.8055 42.7877 35.6927 41.675 35.6175Z" fill="#FFB700"/>
<path d="M57.0871 31.7231C57.1774 32.7005 56.1098 33.6928 55.0422 33.6928C54.0047 33.6778 53.0274 32.6403 53.0725 31.6178C53.1176 30.5803 54.0047 29.6631 55.1174 29.6782C56.215 29.6932 57.1774 30.6555 57.0871 31.7231Z" fill="#FFB700"/>
<path d="M66.7855 51.2852C66.7404 50.2026 67.7177 49.3756 68.7853 49.3907C69.898 49.4057 70.7701 50.2928 70.7551 51.4356C70.74 52.4731 69.7627 53.4204 68.6801 53.3903C67.6877 53.3602 66.6802 52.428 66.7855 51.2852Z" fill="#FFB700"/>
<path d="M66.0487 55.5104C65.9886 54.4579 67.0261 53.5407 68.1087 53.5707C69.086 53.6008 70.0634 54.5481 70.0183 55.6758C69.9732 56.6983 68.9958 57.6155 67.9734 57.5704C66.9208 57.5553 65.9435 56.6682 66.0487 55.5104Z" fill="#FFB700"/>
<path d="M67.5223 47.1352C67.4621 46.1579 68.4846 45.1504 69.5371 45.1655C70.5746 45.1805 71.552 46.1879 71.5369 47.2104C71.5219 48.1427 70.6047 49.1651 69.492 49.1501C68.4395 49.135 67.4471 48.1577 67.5223 47.1352Z" fill="#FFB700"/>
<path d="M52.8469 30.9563C52.9371 31.9637 51.9748 32.926 50.8321 32.8959C49.7645 32.8809 48.8623 31.9486 48.8774 30.866C48.8924 29.8736 49.7946 28.8963 50.9072 28.9113C51.8696 28.9414 52.9672 29.8436 52.8469 30.9563Z" fill="#FFB700"/>
<path d="M38.6978 37.091C38.7881 38.1586 37.8107 39.0908 36.7431 39.0908C35.7357 39.1059 34.7583 38.0985 34.7433 37.1211C34.7283 36.0686 35.7056 35.1062 36.7131 35.1062C37.8408 35.1062 38.773 36.0235 38.6978 37.091Z" fill="#FFB700"/>
<path d="M35.0891 58.0214C35.1493 59.0138 34.2622 59.9762 33.0893 59.9611C32.112 59.9461 31.1346 58.9988 31.1497 57.9463C31.1647 56.984 32.127 55.9615 33.1946 55.9916C34.217 56.0367 35.1794 56.9539 35.0891 58.0214Z" fill="#FFB700"/>
<path d="M44.7123 30.1894C44.6371 29.1519 45.6446 28.2046 46.652 28.2046C47.7346 28.2046 48.6217 29.0918 48.6217 30.1593C48.6067 31.2871 47.7947 32.099 46.6971 32.114C45.5995 32.1441 44.6672 31.2269 44.7123 30.1894Z" fill="#FFB700"/>
<path d="M68.7703 37.9932C68.8455 38.8954 67.9282 39.9629 66.8005 39.9479C65.6878 39.9329 64.8458 38.9706 64.8458 38.0082C64.8458 36.9557 65.7029 36.0535 66.8005 36.0385C67.9132 36.0235 68.8154 37.0158 68.7703 37.9932Z" fill="#FFB700"/>
<path d="M72.2286 42.9552C72.1985 44.0528 71.3565 44.8948 70.2889 44.9249C69.2063 44.955 68.3041 43.9776 68.3041 42.9702C68.2891 41.9628 69.2665 40.9854 70.2889 41.0004C71.2813 41.0004 72.2286 41.8876 72.2286 42.9552Z" fill="#FFB700"/>
<path d="M52.5161 68.0656C53.4935 68.0356 54.4859 68.9227 54.4859 70.0053C54.4708 71.1481 53.5536 71.9751 52.5462 71.96C51.4335 71.945 50.6366 71.1932 50.6065 70.0504C50.5614 68.9077 51.4937 68.0807 52.5161 68.0656Z" fill="#FFB700"/>
<path d="M62.9212 35.1814C62.8911 35.1363 62.8761 35.0762 62.846 35.0611C62.6054 35.0311 62.44 34.8657 62.2596 34.7454C61.8837 34.5198 61.6732 34.174 61.5379 33.768C61.3424 33.2267 61.4476 32.7456 61.6732 32.2494C61.8687 31.8133 62.2295 31.5727 62.6355 31.4073C62.8911 31.3021 63.1618 31.1517 63.4625 31.2119C63.8384 31.3021 64.2143 31.4224 64.5301 31.663C64.8308 31.9035 65.0413 32.2043 65.1766 32.5651C65.4924 33.347 65.1165 34.3244 64.3947 34.7755C64.0489 35.001 63.673 35.1213 63.252 35.1213C63.1467 35.1514 63.0264 35.1514 62.9212 35.1814Z" fill="#FFB700"/>
<path d="M29.8716 40.5193C29.9618 39.4066 30.6835 38.6548 31.8112 38.6548C32.939 38.6548 33.7359 39.5419 33.7208 40.5945C33.7058 41.662 32.8036 42.5191 31.7661 42.5041C30.6986 42.459 29.9016 41.647 29.8716 40.5193Z" fill="#FFB700"/>
<path d="M42.4569 31.3773C42.0359 31.272 41.5998 31.1668 41.254 30.8961C40.9683 30.6706 40.7728 30.3698 40.6826 30.024C40.6525 29.9338 40.6225 29.8436 40.5774 29.7534C40.5022 29.6331 40.4871 29.4977 40.5172 29.3624C40.6525 28.8061 40.8029 28.2497 41.3141 27.9039C41.6149 27.6934 41.9457 27.528 42.3216 27.4829C42.7576 27.4378 43.1636 27.5881 43.5245 27.8438C44.0507 28.2046 44.3515 28.7159 44.3966 29.3323C44.4567 30.0541 43.9154 30.9713 43.1185 31.1968C42.8929 31.2419 42.7125 31.4224 42.4569 31.3773Z" fill="#FFB700"/>
<path d="M29.6911 54.9691C28.6536 54.8789 27.8116 54.1421 27.7515 53.0445C27.7214 52.5332 27.962 52.0821 28.3228 51.7062C28.6988 51.3153 29.1949 51.1048 29.6911 51.1048C30.1723 51.1048 30.6685 51.3153 31.0294 51.6912C31.4053 52.0671 31.6007 52.5483 31.6007 53.0294C31.6007 53.5106 31.4053 54.0068 31.0143 54.3676C30.6986 54.6984 30.0971 54.9691 29.6911 54.9691Z" fill="#FFB700"/>
<path d="M63.6279 67.404C63.5828 67.78 63.4625 68.216 63.1467 68.5618C62.7558 68.9828 62.2446 69.2385 61.7032 69.2385C61.177 69.2385 60.6808 68.9979 60.3049 68.6069C59.944 68.2461 59.7786 67.78 59.7937 67.3138C59.8237 66.156 60.6658 65.4042 61.7032 65.3742C62.6656 65.3591 63.5978 66.1711 63.6279 67.404Z" fill="#FFB700"/>
<path d="M37.51 34.7905C36.4274 34.7303 35.6004 34.0236 35.5853 32.8959C35.5703 31.8284 36.4123 30.9713 37.4799 30.9713C38.5024 30.9563 39.3895 31.7081 39.4045 32.8659C39.4045 33.9785 38.6828 34.6852 37.51 34.7905Z" fill="#FFB700"/>
<path d="M40.0661 65.9906C41.1487 66.0508 41.9757 66.8327 41.9607 67.9153C41.9457 69.043 41.1487 69.8399 40.0511 69.8098C38.9083 69.7948 38.1716 69.058 38.1565 67.9002C38.1415 66.8026 38.9535 66.0658 40.0661 65.9906Z" fill="#FFB700"/>
<path d="M68.4094 63.8405C68.3493 65.0434 67.4772 65.7651 66.4998 65.7651C65.4473 65.7651 64.5902 64.8629 64.6052 63.8104C64.6052 63.2992 64.8308 62.8631 65.2067 62.4872C65.5826 62.1263 66.0487 61.9459 66.5299 61.9459C67.0411 61.9459 67.5223 62.1564 67.8982 62.5323C68.259 62.8932 68.3493 63.3743 68.4094 63.8405Z" fill="#FFB700"/>
<path d="M54.8618 70.7722C54.8167 69.8399 55.7188 68.8776 56.7263 68.8926C57.8239 68.9077 58.6208 69.7347 58.5908 70.7722C58.5607 71.945 57.884 72.6216 56.7263 72.6367C55.6587 72.6667 54.8618 71.8247 54.8618 70.7722Z" fill="#FFB700"/>
<path d="M32.3977 64.051C31.4053 64.1412 30.5181 63.1488 30.5332 62.2166C30.5482 61.1941 31.3151 60.3521 32.4127 60.3671C33.4953 60.3821 34.202 61.1791 34.2321 62.1865C34.2471 63.2089 33.36 64.1262 32.3977 64.051Z" fill="#FFB700"/>
<path d="M34.3824 36.3543C34.4125 37.3166 33.5705 38.1887 32.518 38.1736C31.4654 38.1586 30.6986 37.3166 30.7136 36.2941C30.7286 35.3468 31.5406 34.4597 32.6082 34.4747C33.5554 34.5048 34.4576 35.422 34.3824 36.3543Z" fill="#FFB700"/>
<path d="M71.1159 52.1423C71.0708 51.1499 71.958 50.2778 72.9503 50.2928C74.0029 50.3079 74.7848 51.0296 74.7998 52.1272C74.7998 53.2399 73.9427 53.9767 72.9654 53.9917C71.988 54.0068 71.0708 53.1196 71.1159 52.1423Z" fill="#FFB700"/>
<path d="M55.6888 29.2722C54.7114 29.3624 53.8543 28.4452 53.8543 27.4378C53.8543 26.5356 54.7866 25.6034 55.7038 25.6034C56.636 25.6184 57.5533 26.4755 57.5382 27.4829C57.4931 28.4753 56.7263 29.3474 55.6888 29.2722Z" fill="#FFB700"/>
<path d="M73.7473 46.1128C74.7547 46.0526 75.5516 46.9548 75.5516 47.9472C75.5516 48.8644 74.7246 49.7666 73.7022 49.7666C72.7699 49.7666 71.8677 48.8193 71.8828 47.9021C71.8978 46.9849 72.7549 46.0075 73.7473 46.1128Z" fill="#FFB700"/>
<path d="M51.629 24.8816C52.5312 24.7914 53.5085 25.7387 53.4935 26.716C53.4784 27.6332 52.6514 28.5505 51.644 28.5354C50.6216 28.5204 49.8246 27.7535 49.8096 26.7311C49.7946 25.6936 50.6366 24.8365 51.629 24.8816Z" fill="#FFB700"/>
<path d="M72.2136 58.1417C71.1911 58.2019 70.4092 57.3448 70.3942 56.3224C70.3791 55.33 71.2964 54.4879 72.2286 54.4729C73.1909 54.4729 74.0781 55.4202 74.063 56.3073C74.063 57.3147 73.236 58.232 72.2136 58.1417Z" fill="#FFB700"/>
<path d="M69.3567 33.8131C69.4018 34.8206 68.5598 35.6175 67.5223 35.6175C66.5599 35.6175 65.7029 34.7303 65.7029 33.768C65.7029 32.8959 66.575 31.9336 67.5674 31.9486C68.4996 31.9637 69.4469 32.7756 69.3567 33.8131Z" fill="#FFB700"/>
<path d="M30.7587 57.2847C30.7737 58.232 29.9468 59.1041 28.8942 59.074C27.9018 59.0439 27.1049 58.247 27.1199 57.1945C27.135 56.2472 27.977 55.3901 28.9844 55.4051C29.8866 55.4051 30.8489 56.3073 30.7587 57.2847Z" fill="#FFB700"/>
<path d="M72.815 38.73C72.9203 39.7224 71.9279 40.5644 71.0257 40.5945C70.0935 40.6095 69.1612 39.6472 69.1612 38.7751C69.1612 37.8128 70.0333 36.9106 71.0107 36.9106C72.0181 36.9407 72.8752 37.7376 72.815 38.73Z" fill="#FFB700"/>
<path d="M35.856 68.9528C34.8636 69.043 34.0216 68.0656 34.0216 67.1334C34.0216 66.2613 34.9388 65.299 35.841 65.299C36.7582 65.299 37.6904 66.156 37.6754 67.1484C37.6603 68.1408 36.8634 69.0129 35.856 68.9528Z" fill="#FFB700"/>
<path d="M59.8839 26.4153C60.8161 26.295 61.7183 27.3175 61.7333 28.2046C61.7333 29.1519 60.8462 30.0691 59.8989 30.0541C58.9366 30.0541 58.0795 29.182 58.0795 28.2347C58.0645 27.2573 58.9817 26.3251 59.8839 26.4153Z" fill="#FFB700"/>
<path d="M71.4768 58.6079C72.4692 58.5477 73.3112 59.5401 73.2962 60.4122C73.2962 61.2843 72.3639 62.2466 71.4618 62.2316C70.6047 62.2166 69.6424 61.3896 69.6724 60.3821C69.6875 59.4198 70.4994 58.5628 71.4768 58.6079Z" fill="#FFB700"/>
<path d="M49.2232 25.9492C49.2984 26.9867 48.2759 27.7836 47.4339 27.7836C46.6219 27.7986 45.5995 27.0017 45.5995 25.9642C45.6145 24.9568 46.5167 24.1448 47.4339 24.1599C48.3511 24.1749 49.2683 24.9568 49.2232 25.9492Z" fill="#FFB700"/>
<path d="M40.0511 28.6557C40.0962 29.7082 39.1339 30.4751 38.2467 30.4751C37.3746 30.4751 36.4424 29.7233 36.4424 28.6707C36.4424 27.6332 37.2995 26.8814 38.2317 26.8814C39.2241 26.8664 40.0661 27.6934 40.0511 28.6557Z" fill="#FFB700"/>
<path d="M74.484 45.4812C73.4766 45.4963 72.6797 44.6242 72.6797 43.6919C72.6797 42.7146 73.6119 41.8876 74.484 41.8876C75.3261 41.8876 76.2733 42.6845 76.2733 43.6769C76.2733 44.6693 75.4313 45.4963 74.484 45.4812Z" fill="#FFB700"/>
<path d="M64.1391 68.0506C64.1391 66.9981 65.0714 66.2463 65.9284 66.2613C66.9509 66.2763 67.7478 67.1785 67.7027 68.0807C67.6576 69.043 67.011 69.8249 65.9134 69.8399C64.8909 69.8549 64.1542 69.0731 64.1391 68.0506Z" fill="#FFB700"/>
<path d="M49.3435 73.5088C49.2833 74.5312 48.5616 75.253 47.5542 75.253C46.5167 75.268 45.7649 74.3658 45.7649 73.4636C45.7649 72.5464 46.637 71.6593 47.5842 71.6894C48.4563 71.7044 49.3585 72.4412 49.3435 73.5088Z" fill="#FFB700"/>
<path d="M60.9514 69.7347C61.9288 69.7497 62.7558 70.5466 62.7257 71.539C62.7107 72.5464 61.9438 73.2982 60.9514 73.2982C59.959 73.3133 59.1922 72.4863 59.1772 71.539C59.1471 70.5767 59.9891 69.7497 60.9514 69.7347Z" fill="#FFB700"/>
<path d="M35.0591 32.114C34.9839 33.2418 34.3373 33.8282 33.2998 33.8883C32.8337 33.9184 32.3977 33.738 32.0518 33.3771C31.706 33.0313 31.5105 32.5952 31.4955 32.1441C31.4805 31.678 31.691 31.2419 32.0218 30.8961C32.3526 30.5352 32.8036 30.3097 33.2848 30.3398C34.2922 30.4149 34.9839 31.0014 35.0591 32.114Z" fill="#FFB700"/>
<path d="M28.7739 44.0528C28.6837 44.4588 28.6085 44.9099 28.2326 45.2407C27.8868 45.5715 27.4507 45.782 26.9997 45.782C26.5335 45.782 26.0975 45.5865 25.7517 45.2557C25.3908 44.9099 25.1652 44.4588 25.1953 43.9927C25.2705 42.9852 25.8569 42.2485 26.9696 42.2485C28.1123 42.2635 28.6536 42.9852 28.7739 44.0528Z" fill="#FFB700"/>
<path d="M43.344 74.5011C42.2313 74.4109 41.6449 73.7493 41.5998 72.7118C41.5848 72.2457 41.7652 71.7946 42.1261 71.4638C42.4719 71.1481 42.908 70.9225 43.3741 70.9225C43.8553 70.9376 44.2913 71.133 44.6371 71.4939C44.9679 71.8397 45.1935 72.2758 45.1484 72.7419C45.0431 73.7493 44.4868 74.426 43.344 74.5011Z" fill="#FFB700"/>
<path d="M26.308 46.2782C26.6839 46.3533 27.1049 46.4436 27.4507 46.7894C27.8116 47.1503 27.992 47.5863 28.0221 48.0524C28.0823 48.9396 27.1199 49.8869 26.2178 49.8417C25.1953 49.7816 24.4886 49.12 24.4886 48.0524C24.4736 47.03 25.2254 46.3383 26.308 46.2782Z" fill="#FFB700"/>
<path d="M64.1542 30.7608C63.0565 30.6856 62.3348 29.9939 62.3648 28.9715C62.3949 27.8588 63.1016 27.2573 64.1241 27.2122C64.5301 27.1972 64.9511 27.3325 65.2668 27.6332C65.6427 27.9941 65.9134 28.4753 65.8833 28.9865C65.8683 29.4677 65.6578 29.9188 65.2969 30.2796C64.9511 30.5954 64.5451 30.6856 64.1542 30.7608Z" fill="#FFB700"/>
<path d="M51.7793 76.0048C50.7418 75.9296 50.0201 75.253 50.0201 74.2305C50.0201 73.2231 50.787 72.4713 51.7944 72.4863C52.7717 72.4863 53.5386 73.2832 53.5235 74.2305C53.5386 75.2379 52.7717 75.9296 51.7793 76.0048Z" fill="#FFB700"/>
<path d="M29.4957 39.7975C29.4205 40.82 28.789 41.5267 27.7515 41.5568C26.7891 41.5869 26.0073 40.805 25.9922 39.8276C25.9772 38.9254 26.6689 38.0383 27.7364 38.0533C28.819 38.0834 29.3904 38.7901 29.4957 39.7975Z" fill="#FFB700"/>
<path d="M28.2026 59.7205C29.1949 59.7205 29.9167 60.5325 29.9317 61.4347C29.9468 62.397 29.1799 63.2089 28.2026 63.1939C27.1651 63.1789 26.4584 62.5022 26.4584 61.4497C26.4584 60.4724 27.0899 59.7506 28.2026 59.7205Z" fill="#FFB700"/>
<path d="M43.2688 23.4983C44.3063 23.5284 44.9379 24.2952 44.9228 25.2726C44.8928 26.4003 44.0207 26.9416 43.2087 26.9566C42.7275 26.9717 42.2915 26.7461 41.9457 26.3852C41.6149 26.0544 41.5698 25.6034 41.4645 25.1823C41.66 24.1749 42.096 23.5133 43.2688 23.4983Z" fill="#FFB700"/>
<path d="M70.6799 66.3064C69.6574 66.2914 68.9808 65.5095 69.0109 64.5622C69.0259 64.1412 69.1311 63.7352 69.4469 63.4195C69.8078 63.0586 70.2739 62.833 70.7551 62.8781C71.8226 62.9834 72.4541 63.5698 72.4541 64.6223C72.4541 65.5847 71.7625 66.3365 70.6799 66.3064Z" fill="#FFB700"/>
<path d="M39.3444 70.276C40.3669 70.291 41.0585 71.0729 41.0134 72.0202C40.9984 72.4412 40.8931 72.8472 40.5774 73.1629C40.2165 73.5238 39.7504 73.7493 39.2692 73.7042C38.2167 73.599 37.5701 73.0276 37.5701 71.96C37.5551 71.0127 38.2618 70.2459 39.3444 70.276Z" fill="#FFB700"/>
<path d="M23.7819 52.2926C23.7368 51.3153 24.5036 50.5785 25.481 50.5785C26.5185 50.5785 27.2102 51.4055 27.2102 52.2926C27.2102 53.2399 26.4584 53.9917 25.5111 54.0068C24.6239 54.0068 23.7368 53.3301 23.7819 52.2926Z" fill="#FFB700"/>
<path d="M71.8076 32.8358C72.6045 32.7456 73.5067 33.6628 73.4766 34.5499C73.4616 35.3769 72.6797 36.234 71.7474 36.234C70.8753 36.234 70.0484 35.3919 70.0634 34.4898C70.0784 33.6928 70.9355 32.7155 71.8076 32.8358Z" fill="#FFB700"/>
<path d="M57.6585 74.9823C57.7487 75.8694 56.8766 76.6964 56.0045 76.6964C55.1625 76.6964 54.3054 75.8845 54.3054 74.9973C54.3054 74.1102 55.0572 73.2982 55.9895 73.2982C56.9668 73.2832 57.7337 74.1252 57.6585 74.9823Z" fill="#FFB700"/>
<path d="M31.6308 68.0957C30.6685 68.1258 29.9468 67.374 29.9618 66.3966C29.9768 65.3892 30.7286 64.7276 31.6759 64.7426C32.6082 64.7577 33.3299 65.4193 33.3299 66.4267C33.3149 67.389 32.6082 68.1408 31.6308 68.0957Z" fill="#FFB700"/>
<path d="M28.4882 33.9184C29.2401 33.8282 30.2024 34.7003 30.1873 35.6024C30.1723 36.4144 29.3453 37.2865 28.4882 37.2865C27.6312 37.2865 26.8042 36.3994 26.7892 35.6175C26.7741 34.7153 27.7214 33.8131 28.4882 33.9184Z" fill="#FFB700"/>
<path d="M66.6502 29.7082C66.59 28.9715 67.3719 28.0392 68.3342 28.0543C69.1913 28.0693 70.0032 28.8662 70.0032 29.7383C70.0032 30.6405 69.071 31.4224 68.3041 31.4073C67.4772 31.3923 66.575 30.5803 66.6502 29.7082Z" fill="#FFB700"/>
<path d="M73.5819 39.4818C73.5368 38.5796 74.4089 37.8428 75.2358 37.8428C76.1531 37.8428 76.9349 38.73 76.9049 39.5269C76.8898 40.3238 76.138 41.1658 75.2058 41.1508C74.4239 41.1358 73.5067 40.4441 73.5819 39.4818Z" fill="#FFB700"/>
<path d="M58.0946 23.2427C58.1397 24.205 57.2826 24.8967 56.4556 24.9117C55.4933 24.9117 54.7716 24.0697 54.7716 23.2727C54.7716 22.4758 55.4933 21.6188 56.4255 21.6188C57.2826 21.6037 58.1096 22.3255 58.0946 23.2427Z" fill="#FFB700"/>
<path d="M78.0777 56.9238C78.1529 57.841 77.2056 58.6079 76.4538 58.6079C75.5366 58.6229 74.7848 57.7508 74.7547 56.9689C74.7246 56.2171 75.4764 55.2698 76.4087 55.2698C77.2657 55.2698 78.1228 56.0667 78.0777 56.9238Z" fill="#FFB700"/>
<path d="M77.2357 51.2401C78.0326 51.195 78.9047 51.9919 78.8596 52.9542C78.8295 53.7512 78.0476 54.5631 77.1304 54.533C76.2583 54.503 75.4915 53.6459 75.5215 52.834C75.5366 52.037 76.2884 51.1649 77.2357 51.2401Z" fill="#FFB700"/>
<path d="M24.7142 58.1267C23.8721 58.1718 23.0602 57.3899 23.0752 56.4727C23.0752 55.5405 23.9172 54.8338 24.7442 54.8488C25.6614 54.8488 26.4132 55.7059 26.3982 56.5028C26.3982 57.2546 25.6614 58.1868 24.7142 58.1267Z" fill="#FFB700"/>
<path d="M65.1315 73.9298C64.3496 73.9448 63.4926 73.193 63.5076 72.2457C63.5226 71.3586 64.3346 70.6068 65.1916 70.6218C66.1239 70.6368 66.8456 71.524 66.8156 72.3209C66.7855 73.1479 66.0487 73.9598 65.1315 73.9298Z" fill="#FFB700"/>
<path d="M52.2605 20.867C53.2078 20.882 53.8995 21.6338 53.8844 22.536C53.8694 23.4983 53.1025 24.19 52.2004 24.1599C51.3283 24.1298 50.6065 23.5133 50.6065 22.5059C50.5915 21.6037 51.2681 20.8519 52.2605 20.867Z" fill="#FFB700"/>
<path d="M33.4652 71.2232C33.4352 70.3812 34.1268 69.5693 35.1042 69.5693C36.0364 69.5693 36.7431 70.3511 36.7431 71.2232C36.7431 72.1856 35.9462 72.8772 35.1042 72.8772C34.2471 72.8923 33.4502 72.2006 33.4652 71.2232Z" fill="#FFB700"/>
<path d="M34.0817 26.28C35.014 26.3251 35.6906 27.0318 35.6756 27.949C35.6605 28.9414 34.8786 29.5278 33.9915 29.5729C33.5705 29.588 33.1645 29.3624 32.8638 29.0467C32.5631 28.7159 32.3375 28.3249 32.3977 27.8588C32.5029 26.9867 33.0743 26.295 34.0817 26.28Z" fill="#FFB700"/>
<path d="M79.5663 48.684C79.5061 49.6463 78.7694 50.3229 77.8973 50.2928C76.98 50.2477 76.2884 49.6613 76.2884 48.6689C76.2884 47.7367 76.98 47.045 77.9273 47.045C78.8896 47.03 79.5362 47.8269 79.5663 48.684Z" fill="#FFB700"/>
<path d="M69.9732 70.4564C69.0259 70.4564 68.3192 69.6144 68.3342 68.8175C68.3493 67.9454 69.086 67.1935 69.9431 67.1785C70.7701 67.1635 71.582 67.8401 71.5971 68.8024C71.6121 69.6896 70.8904 70.4113 69.9732 70.4564Z" fill="#FFB700"/>
<path d="M60.6357 25.6334C59.7034 25.5883 59.0118 24.9418 59.0268 23.9945C59.0418 23.0322 59.7335 22.3706 60.6808 22.4006C61.7333 22.4307 62.1393 23.0923 62.3197 24.0095C62.1393 24.9267 61.7032 25.5733 60.6357 25.6334Z" fill="#FFB700"/>
<path d="M37.3897 24.4606C37.4348 23.5284 38.1415 22.8517 39.0136 22.8367C39.4045 22.8367 39.7804 22.972 40.0812 23.2577C40.427 23.5885 40.6375 24.0095 40.6525 24.4606C40.6676 24.8666 40.4721 25.2726 40.1714 25.5883C39.8707 25.9041 39.4797 26.1146 39.0437 26.0996C38.1716 26.0695 37.4198 25.438 37.3897 24.4606Z" fill="#FFB700"/>
<path d="M77.3108 61.1339C77.3108 61.976 76.544 62.7579 75.6869 62.7729C74.8299 62.7729 74.063 62.0211 74.063 61.164C74.048 60.322 74.8299 59.48 75.6719 59.5401C76.6793 59.6002 77.1755 60.1265 77.3108 61.1339Z" fill="#FFB700"/>
<path d="M61.8085 75.7341C61.8085 76.5461 61.0417 77.3731 60.2147 77.358C59.8087 77.343 59.4027 77.1926 59.0869 76.8919C58.7562 76.5761 58.6058 76.1551 58.5908 75.7341C58.5607 74.9071 59.3877 74.1102 60.1996 74.1403C61.192 74.1703 61.7333 74.862 61.8085 75.7341Z" fill="#FFB700"/>
<path d="M48.1707 20.1602C49.0578 20.1302 49.7645 20.9572 49.7645 21.7541C49.7645 22.6563 48.9676 23.363 48.1857 23.363C47.3286 23.3479 46.5768 22.6713 46.5768 21.7391C46.5768 20.9121 47.2685 20.1602 48.1707 20.1602Z" fill="#FFB700"/>
<path d="M29.0897 29.7834C29.9167 29.7684 30.6835 30.4901 30.6685 31.3472C30.6685 31.7381 30.5332 32.1291 30.2475 32.4448C29.9317 32.7907 29.5257 32.941 29.0897 32.926C28.2477 32.8959 27.5259 32.3546 27.5109 31.3773C27.5109 30.445 28.2026 29.8586 29.0897 29.7834Z" fill="#FFB700"/>
<path d="M25.8719 65.6448C25.8268 64.8479 26.5486 64.0961 27.4357 64.0961C28.4281 64.1111 28.9995 64.878 28.9995 65.6598C28.9995 66.4718 28.4281 67.2086 27.4357 67.2086C26.5636 67.2236 25.8118 66.5169 25.8719 65.6448Z" fill="#FFB700"/>
<path d="M46.8174 76.1401C47.5842 76.0499 48.3812 76.8468 48.3812 77.6738C48.3812 78.5609 47.6143 79.2375 46.8475 79.2375C46.0355 79.2375 45.2987 78.5609 45.2837 77.6888C45.2687 76.8769 45.9904 76.0649 46.8174 76.1401Z" fill="#FFB700"/>
<path d="M64.8458 23.2427C65.6728 23.1976 66.3946 23.8592 66.4096 24.7613C66.4096 25.5883 65.6878 26.3101 64.8909 26.3101C63.9888 26.3251 63.3121 25.5733 63.3121 24.7463C63.3272 23.8892 63.9737 23.2126 64.8458 23.2427Z" fill="#FFB700"/>
<path d="M78.6641 46.0075C77.8973 46.0977 77.1154 45.2858 77.1304 44.4437C77.1454 43.5716 77.9273 42.895 78.7092 42.91C79.461 42.9251 80.2128 43.5265 80.2128 44.4738C80.2128 45.3158 79.4911 46.0827 78.6641 46.0075Z" fill="#FFB700"/>
<path d="M42.7275 78.4707C41.8254 78.4557 41.269 77.8091 41.2239 76.8769C41.1938 76.1251 42.0058 75.3582 42.8328 75.3732C43.5094 75.3883 44.3515 76.1551 44.3364 76.9671C44.3063 77.6437 43.5545 78.606 42.7275 78.4707Z" fill="#FFB700"/>
<path d="M23.9623 62.2316C23.2105 62.3519 22.3986 61.4046 22.4136 60.6829C22.4286 59.9762 23.2105 59.1341 23.9774 59.1492C24.6991 59.1642 25.5261 59.8859 25.5261 60.6979C25.5261 61.4647 24.7142 62.3519 23.9623 62.2316Z" fill="#FFB700"/>
<path d="M21.9926 48.9847C21.1806 49.0749 20.4589 48.1878 20.4589 47.451C20.4739 46.6992 21.1806 45.9323 22.0527 45.9474C22.8497 45.9624 23.5714 46.6841 23.5564 47.5111C23.5564 48.2028 22.8948 49.0899 21.9926 48.9847Z" fill="#FFB700"/>
<path d="M24.2781 43.2408C24.3382 44.143 23.6165 44.7745 22.7745 44.7745C22.0076 44.7896 21.2408 44.143 21.2408 43.2559C21.2408 42.4439 22.0076 41.7071 22.7594 41.7071C23.6165 41.7071 24.3382 42.459 24.2781 43.2408Z" fill="#FFB700"/>
<path d="M30.864 72.1405C30.1422 72.2307 29.3453 71.4037 29.3453 70.5917C29.3453 69.8249 30.1723 69.028 30.9391 69.0731C31.6759 69.1182 32.4277 69.8098 32.4127 70.6368C32.3977 71.3586 31.7511 72.2307 30.864 72.1405Z" fill="#FFB700"/>
<path d="M74.048 30.5052C74.063 31.287 73.3413 32.0088 72.5143 32.0088C71.7174 32.0088 70.9956 31.2269 70.9956 30.4751C70.9956 29.7834 71.7174 28.9414 72.5744 28.9564C73.3413 28.9715 74.0931 29.7082 74.048 30.5052Z" fill="#FFB700"/>
<path d="M75.9726 33.768C76.8146 33.6928 77.4913 34.5349 77.5063 35.2716C77.5063 36.0986 76.7846 36.7903 76.0027 36.8204C75.296 36.8505 74.4389 36.0836 74.454 35.2867C74.4389 34.5198 75.2509 33.6778 75.9726 33.768Z" fill="#FFB700"/>
<path d="M52.5462 78.4557C52.6364 79.2225 51.8545 79.9593 50.9975 79.9593C50.2005 79.9593 49.4938 79.1924 49.4788 78.4557C49.4638 77.749 50.2005 76.8919 51.0426 76.9069C51.8245 76.922 52.6514 77.6888 52.5462 78.4557Z" fill="#FFB700"/>
<path d="M25.0299 39.0457C25.1051 39.8727 24.233 40.5794 23.5263 40.5794C22.8196 40.5794 21.9926 39.8427 22.0076 39.0457C22.0227 38.2037 22.7745 37.512 23.5263 37.5271C24.3082 37.5271 25.075 38.2187 25.0299 39.0457Z" fill="#FFB700"/>
<path d="M73.4315 65.3742C73.3714 64.487 74.1382 63.8705 74.9201 63.8705C75.7621 63.8705 76.4087 64.5021 76.4387 65.329C76.4688 66.141 75.7771 66.8778 74.9351 66.8928C74.1081 66.8778 73.3563 66.141 73.4315 65.3742Z" fill="#FFB700"/>
<path d="M21.2859 50.0222C21.9625 49.932 22.8346 50.8041 22.8046 51.5559C22.7745 52.3378 21.9174 53.0745 21.2709 53.0595C20.519 53.0294 19.7672 52.3378 19.7522 51.5108C19.7522 50.8642 20.4739 49.947 21.2859 50.0222Z" fill="#FFB700"/>
<path d="M43.9455 22.5209C43.1786 22.551 42.4419 21.7691 42.4719 20.9722C42.502 20.1602 43.1786 19.4987 43.9755 19.4836C44.6221 19.4686 45.4792 20.1452 45.4792 21.0173C45.4792 21.7842 44.6221 22.6112 43.9455 22.5209Z" fill="#FFB700"/>
<path d="M38.5475 77.6888C37.6754 77.7339 37.0589 76.9069 37.0739 76.1852C37.089 75.3432 37.7205 74.7117 38.5625 74.6966C39.2692 74.6816 40.0661 75.2981 40.0812 76.1852C40.0812 76.952 39.3143 77.764 38.5475 77.6888Z" fill="#FFB700"/>
<path d="M56.7112 79.1924C56.6661 80.0796 56.0797 80.651 55.2377 80.681C54.4558 80.6961 53.7491 80.0194 53.7491 79.1774C53.7491 78.4406 54.4257 77.6888 55.2377 77.7039C56.1098 77.7189 56.6812 78.3805 56.7112 79.1924Z" fill="#FFB700"/>
<path d="M69.3717 74.4861C68.4695 74.4109 67.9433 73.8847 67.9132 73.0276C67.8982 72.2156 68.5447 71.554 69.3717 71.539C70.1536 71.539 70.8603 72.2156 70.8302 73.0276C70.8152 73.8997 70.1987 74.426 69.3717 74.4861Z" fill="#FFB700"/>
<path d="M79.446 38.7901C80.2128 38.8052 80.9045 39.4818 80.9045 40.2486C80.9195 41.0155 80.1828 41.7673 79.4159 41.7222C78.5288 41.6771 77.9724 41.1057 77.9724 40.2637C77.9724 39.3916 78.5288 38.8653 79.446 38.7901Z" fill="#FFB700"/>
<path d="M70.5445 25.4981C70.5145 26.28 69.8378 26.9717 69.056 26.9867C68.665 26.9867 68.3192 26.8063 68.0485 26.5356C67.7628 26.2499 67.5974 25.889 67.5974 25.5131C67.5974 25.1523 67.7628 24.7764 68.0335 24.4907C68.3192 24.19 68.6951 24.0246 69.086 24.0246C69.4469 24.0246 69.8228 24.19 70.1085 24.4756C70.3491 24.7463 70.5445 25.1823 70.5445 25.4981Z" fill="#FFB700"/>
<path d="M64.4398 75.0124C64.7406 75.0725 65.0864 75.1176 65.3571 75.3883C65.6578 75.689 65.8683 76.0649 65.8833 76.4859C65.8833 76.8618 65.6878 77.2377 65.4172 77.5385C65.1465 77.8241 64.7857 77.9595 64.4248 77.9444C63.5677 77.9294 62.9813 77.3129 62.9362 76.516C62.9061 75.7943 63.5076 75.0575 64.4398 75.0124Z" fill="#FFB700"/>
<path d="M25.7517 34.8206C25.7065 35.6626 25.1502 36.2791 24.3082 36.2941C23.4361 36.3091 22.8497 35.7227 22.8346 34.8807C22.8196 33.9785 23.3759 33.4072 24.2781 33.3921C25.1201 33.3771 25.6614 33.9485 25.7517 34.8206Z" fill="#FFB700"/>
<path d="M36.277 23.6938C36.2319 24.4756 35.6304 25.1372 34.8185 25.1823C34.0968 25.2275 33.3299 24.4756 33.3449 23.7238C33.36 23.363 33.4803 23.0171 33.7509 22.7164C34.0366 22.4006 34.4125 22.2653 34.8035 22.2352C35.5102 22.1901 36.262 22.972 36.277 23.6938Z" fill="#FFB700"/>
<path d="M35.7357 75.4334C35.7658 76.2303 35.1643 76.8468 34.3373 76.8468C33.5554 76.8468 32.9239 76.2303 32.939 75.4184C32.954 74.6064 33.5404 74.035 34.3373 74.035C35.1794 74.035 35.7507 74.5914 35.7357 75.4334Z" fill="#FFB700"/>
<path d="M29.8415 28.5505C29.0295 28.5655 28.4281 28.0242 28.4131 27.1521C28.398 26.3401 29.0897 25.7537 29.7964 25.7387C30.5933 25.7387 31.2549 26.3401 31.2248 27.1671C31.2248 28.0242 30.6835 28.5505 29.8415 28.5505Z" fill="#FFB700"/>
<path d="M20.519 57.1193C19.662 57.1343 19.1508 56.5629 19.1508 55.7209C19.1508 54.924 19.6921 54.3376 20.5341 54.3225C21.331 54.3075 21.9625 54.9691 21.9475 55.7359C21.9174 56.5629 21.2859 57.1644 20.519 57.1193Z" fill="#FFB700"/>
<path d="M75.5516 69.5843C75.5817 70.3812 74.9953 70.9225 74.1833 70.9376C73.4315 70.9526 72.7699 70.3361 72.7699 69.5542C72.7699 68.8175 73.5067 68.1408 74.1833 68.1559C74.89 68.1859 75.6268 68.7723 75.5516 69.5843Z" fill="#FFB700"/>
<path d="M82.754 53.6459C82.8291 54.2925 82.1375 55.0593 81.3857 55.0142C80.5887 54.9691 80.0324 54.3977 80.0023 53.6008C79.9723 52.9091 80.709 52.2175 81.4157 52.2475C82.1525 52.2776 82.7991 52.864 82.754 53.6459Z" fill="#FFB700"/>
<path d="M41.1337 20.2655C41.2239 20.9121 40.5022 21.6488 39.7353 21.6338C39.0737 21.6338 38.337 20.9421 38.367 20.2204C38.3971 19.4836 39.0136 18.8521 39.7804 18.8671C40.5323 18.8972 41.1788 19.4987 41.1337 20.2655Z" fill="#FFB700"/>
<path d="M81.9871 57.7057C82.0322 58.5026 81.3556 59.0589 80.6489 59.074C79.8971 59.089 79.2204 58.3823 79.2505 57.6756C79.2956 56.9088 79.882 56.3374 80.6338 56.2923C81.3255 56.2622 82.0773 56.9539 81.9871 57.7057Z" fill="#FFB700"/>
<path d="M58.5456 19.0476C58.6058 19.8144 57.9442 20.3858 57.2225 20.4159C56.4255 20.4309 55.8241 19.6941 55.8091 19.0776C55.794 18.386 56.5458 17.6492 57.2074 17.6642C57.854 17.6642 58.6359 18.2958 58.5456 19.0476Z" fill="#FFB700"/>
<path d="M28.0672 69.885C28.0672 70.6068 27.4056 71.2232 26.6689 71.2533C25.9772 71.2834 25.2855 70.5015 25.3156 69.8399C25.3457 69.1031 25.9622 68.5167 26.6839 68.4867C27.3756 68.4716 28.1274 69.2234 28.0672 69.885Z" fill="#FFB700"/>
<path d="M24.5939 64.908C24.669 65.6147 23.8571 66.3064 23.1955 66.2763C22.4587 66.2463 21.8723 65.6598 21.8422 64.908C21.8272 64.2916 22.4888 63.4946 23.2406 63.5397C23.9774 63.5698 24.5939 64.1713 24.5939 64.908Z" fill="#FFB700"/>
<path d="M62.7558 19.7843C62.8009 20.5963 62.0641 21.1526 61.3875 21.1677C60.786 21.1827 59.9891 20.5963 60.0192 19.8144C60.0493 19.0626 60.6206 18.4762 61.3574 18.416C62.019 18.3709 62.846 19.1227 62.7558 19.7843Z" fill="#FFB700"/>
<path d="M54.3505 18.3258C54.4708 18.9724 53.5687 19.7242 52.9522 19.6941C52.3658 19.6641 51.5989 19.0776 51.629 18.2807C51.6591 17.5891 52.2154 16.9275 53.0123 16.9575C53.7942 16.9876 54.3505 17.5289 54.3505 18.3258Z" fill="#FFB700"/>
<path d="M59.4478 81.2975C58.711 81.3426 58.0795 80.6359 58.0795 79.9593C58.0795 79.2225 58.696 78.6211 59.4328 78.606C60.0944 78.591 60.786 79.2225 60.8011 79.9593C60.8311 80.6209 60.0944 81.3577 59.4478 81.2975Z" fill="#FFB700"/>
<path d="M83.4907 49.4508C83.5358 50.1274 82.8592 50.789 82.1224 50.789C81.536 50.789 80.7692 50.1725 80.7842 49.4057C80.7842 48.8042 81.4759 48.0524 82.1826 48.0675C82.8291 48.0675 83.5659 48.7441 83.4907 49.4508Z" fill="#FFB700"/>
<path d="M25.0149 31.9637C24.2029 31.8885 23.7218 31.4374 23.6917 30.6104C23.6616 29.8887 24.3082 29.2872 25.0299 29.2572C25.6614 29.2271 26.4283 29.9939 26.3832 30.6405C26.3531 31.3622 25.7366 31.9637 25.0149 31.9637Z" fill="#FFB700"/>
<path d="M78.5589 61.9008C78.5288 61.2542 79.1002 60.5776 79.882 60.5475C80.6639 60.5175 81.2804 61.3144 81.2654 61.9309C81.2353 62.6526 80.6188 63.239 79.882 63.2541C79.1002 63.2691 78.4987 62.5022 78.5589 61.9008Z" fill="#FFB700"/>
<path d="M50.2607 17.559C50.2156 18.3258 49.6292 18.8822 48.8924 18.8972C48.2458 18.9122 47.5241 18.1755 47.5692 17.5289C47.6143 16.8072 48.1707 16.1907 48.9225 16.2208C49.7645 16.2508 50.1705 16.7019 50.2607 17.559Z" fill="#FFB700"/>
<path d="M76.7395 29.7383C77.4913 29.7684 78.0476 30.2947 78.0627 31.0916C78.0777 31.8584 77.3108 32.4298 76.7094 32.4298C76.123 32.4298 75.3561 31.7832 75.3862 31.0615C75.4163 30.2947 76.0628 29.7383 76.7395 29.7383Z" fill="#FFB700"/>
<path d="M66.9208 20.5362C66.8456 21.2429 66.4096 21.8142 65.5826 21.8443C64.906 21.8744 64.2895 21.2128 64.2895 20.5362C64.2895 19.8595 64.921 19.213 65.5976 19.228C66.3945 19.2731 66.8607 19.8896 66.9208 20.5362Z" fill="#FFB700"/>
<path d="M80.1828 37.3166C79.3257 37.2414 78.9197 36.8354 78.8896 36.0235C78.8596 35.2716 79.461 34.7454 80.1828 34.7303C80.8594 34.7153 81.5059 35.2867 81.4759 36.0235C81.4608 36.7903 80.9947 37.2715 80.1828 37.3166Z" fill="#FFB700"/>
<path d="M30.1122 75.9897C29.8265 75.9296 29.5107 75.8845 29.2701 75.6439C29.0145 75.3883 28.8491 75.0424 28.8341 74.6966C28.8341 74.3357 29.0145 73.9899 29.2852 73.7193C29.5257 73.4787 29.8265 73.4035 30.1272 73.3885C30.7888 73.3434 31.4353 74.0049 31.4353 74.6816C31.4353 75.3732 30.8189 75.9897 30.1122 75.9897Z" fill="#FFB700"/>
<path d="M21.0453 59.9762C21.0754 60.7731 20.2935 61.2693 19.7672 61.2392C19.1658 61.2242 18.4741 60.758 18.5042 59.916C18.5343 59.0289 19.1056 58.668 19.7823 58.668C20.4589 58.668 21.0453 59.1191 21.0453 59.9762Z" fill="#FFB700"/>
<path d="M73.2962 27.5581C72.4842 27.4829 72.0331 27.0168 71.973 26.28C71.9429 25.9342 72.1233 25.6184 72.3639 25.3628C72.6195 25.0921 72.9654 24.9568 73.2811 24.9718C73.6119 24.9718 73.9427 25.1222 74.1983 25.3778C74.454 25.6334 74.5442 25.9642 74.5592 26.28C74.5893 26.9566 73.9728 27.543 73.2962 27.5581Z" fill="#FFB700"/>
<path d="M84.1674 45.1956C84.1974 45.9774 83.5809 46.4586 82.9194 46.4586C82.2578 46.4586 81.6413 46.0526 81.6262 45.2256C81.6112 44.5039 82.1826 43.9175 82.9043 43.9175C83.5659 43.9175 84.1523 44.5189 84.1674 45.1956Z" fill="#FFB700"/>
<path d="M47.3286 81.899C47.2986 82.6658 46.8324 83.147 46.0656 83.162C45.3438 83.177 44.8025 82.6207 44.7875 81.899C44.7725 81.2073 45.3589 80.6209 46.0505 80.6209C46.7723 80.6359 47.3136 81.1622 47.3286 81.899Z" fill="#FFB700"/>
<path d="M17.7975 45.4662C18.5343 45.4662 19.0305 45.9925 19.0756 46.7142C19.1056 47.3157 18.4741 48.0073 17.8125 47.9773C17.1058 47.9622 16.5796 47.3758 16.5645 46.7443C16.5495 46.0677 17.1359 45.4061 17.7975 45.4662Z" fill="#FFB700"/>
<path d="M43.2388 81.1472C43.2688 81.7937 42.7877 82.4102 41.9908 82.3952C41.2089 82.3801 40.7728 81.8388 40.7578 81.1472C40.7277 80.4555 41.2991 79.8691 41.9908 79.854C42.6824 79.854 43.314 80.5156 43.2388 81.1472Z" fill="#FFB700"/>
<path d="M69.8378 77.2377C69.9281 77.8542 69.1913 78.5158 68.6049 78.4857C67.8982 78.4406 67.402 77.9595 67.3569 77.2528C67.3118 76.6363 67.9884 75.9747 68.6199 75.9897C69.2514 76.0048 69.913 76.5761 69.8378 77.2377Z" fill="#FFB700"/>
<path d="M18.5493 41.2861C19.256 41.226 19.7973 41.8274 19.7973 42.5041C19.7973 43.1356 19.3613 43.7521 18.5643 43.7521C17.8276 43.7521 17.3314 43.2709 17.3314 42.5341C17.3163 41.7222 17.9328 41.241 18.5493 41.2861Z" fill="#FFB700"/>
<path d="M80.3782 66.1109C80.4534 66.7124 79.7918 67.3589 79.1302 67.3439C78.4536 67.3289 77.8822 66.8327 77.8822 66.126C77.8822 65.4193 78.4386 64.908 79.1302 64.893C79.7918 64.8479 80.4534 65.5245 80.3782 66.1109Z" fill="#FFB700"/>
<path d="M50.2607 83.8837C49.6141 83.9589 49.0277 83.2522 49.0428 82.6357C49.0578 82.0343 49.569 81.3877 50.2908 81.4178C50.9824 81.4479 51.5087 81.9591 51.5087 82.6658C51.5087 83.3274 50.9373 83.8837 50.2607 83.8837Z" fill="#FFB700"/>
<path d="M31.8112 22.9871C31.8112 23.6487 31.2248 24.205 30.5482 24.19C29.8716 24.1749 29.3754 23.6336 29.3603 22.9119C29.3453 22.2352 29.9768 21.724 30.6083 21.724C31.1647 21.724 31.9015 22.2954 31.8112 22.9871Z" fill="#FFB700"/>
<path d="M74.6194 73.7944C74.6795 74.3959 74.1081 75.0124 73.4165 75.0124C72.7098 75.0274 72.1835 74.3357 72.2136 73.7493C72.2436 73.0577 72.7398 72.5765 73.4465 72.5464C74.063 72.5164 74.7096 73.193 74.6194 73.7944Z" fill="#FFB700"/>
<path d="M37.8107 81.5832C37.1942 81.6283 36.5928 81.087 36.5777 80.3953C36.5627 79.6886 37.2393 79.1774 37.8107 79.1924C38.5024 79.2075 39.0136 79.7187 39.0437 80.3953C39.0587 81.0419 38.3821 81.6584 37.8107 81.5832Z" fill="#FFB700"/>
<path d="M45.9002 16.7771C45.9002 17.5139 45.419 17.965 44.7123 18.0101C44.0207 18.0552 43.4794 17.3485 43.4794 16.7921C43.4794 16.1907 43.9755 15.5441 44.6823 15.5592C45.4341 15.6043 45.9002 16.0554 45.9002 16.7771Z" fill="#FFB700"/>
<path d="M19.271 39.5119C18.5944 39.4968 18.1133 38.9706 18.0982 38.2639C18.0982 37.6774 18.5944 37.061 19.3462 37.076C19.9777 37.091 20.519 37.6023 20.519 38.324C20.5341 38.9405 19.9026 39.587 19.271 39.5119Z" fill="#FFB700"/>
<path d="M36.7281 19.4987C36.7882 20.055 36.2018 20.7166 35.5402 20.7166C34.8636 20.7166 34.3223 20.04 34.3373 19.4987C34.3674 18.8671 34.8486 18.2807 35.5402 18.2807C36.2319 18.2958 36.7431 18.8521 36.7281 19.4987Z" fill="#FFB700"/>
<path d="M17.0607 49.5861C17.587 49.541 18.2486 50.0673 18.2636 50.7439C18.2787 51.4657 17.5569 51.9769 17.0607 51.9618C16.4593 51.9318 15.8578 51.4807 15.8578 50.789C15.8578 50.0823 16.4442 49.5861 17.0607 49.5861Z" fill="#FFB700"/>
<path d="M63.658 79.4932C64.3496 79.5533 64.8007 79.9743 64.8308 80.6961C64.8609 81.4028 64.2143 81.899 63.6429 81.8839C63.0715 81.8689 62.4551 81.4178 62.4851 80.681C62.5152 79.9593 62.9663 79.5533 63.658 79.4932Z" fill="#FFB700"/>
<path d="M82.4683 41.1057C82.4683 40.399 83.0396 39.8126 83.6261 39.8126C84.2125 39.8126 84.829 40.414 84.829 41.0004C84.829 41.5568 84.1674 42.2334 83.6261 42.2033C83.3103 42.1883 83.0396 42.0229 82.8141 41.8124C82.5886 41.6019 82.4833 41.3012 82.4683 41.1057Z" fill="#FFB700"/>
<path d="M86.7837 54.2323C86.7536 54.8789 86.2273 55.4202 85.5958 55.3901C84.9342 55.36 84.453 54.939 84.438 54.2323C84.423 53.5256 85.0094 53.0745 85.6259 53.0595C86.2273 53.0745 86.7686 53.6158 86.7837 54.2323Z" fill="#FFB700"/>
<path d="M25.7817 27.5731C25.075 27.4979 24.669 27.122 24.6239 26.4153C24.5939 25.7988 25.1652 25.2425 25.7667 25.2425C26.3832 25.2425 26.9546 25.8139 26.9546 26.4304C26.9395 27.0318 26.3982 27.5731 25.7817 27.5731Z" fill="#FFB700"/>
<path d="M59.117 14.8525C59.102 15.4389 58.5005 16.0253 57.9442 16.0253C57.4029 16.0253 56.7563 15.3787 56.7714 14.8374C56.7714 14.2811 57.4029 13.6646 57.9743 13.6796C58.5456 13.6796 59.1321 14.2661 59.117 14.8525Z" fill="#FFB700"/>
<path d="M70.9806 21.288C70.9355 21.9195 70.4994 22.4608 69.8378 22.4608C69.1913 22.4758 68.6801 21.9796 68.6801 21.303C68.6801 20.6564 69.071 20.1753 69.8078 20.1151C70.3942 20.1001 70.9656 20.6865 70.9806 21.288Z" fill="#FFB700"/>
<path d="M53.3281 83.4176C53.313 82.8011 53.8694 82.2448 54.4859 82.2448C55.0873 82.2448 55.6437 82.8011 55.6437 83.4026C55.6437 84.004 55.0723 84.5904 54.5009 84.5904C53.9295 84.5904 53.3431 84.004 53.3281 83.4176Z" fill="#FFB700"/>
<path d="M77.2056 70.3211C77.2056 69.7647 77.8221 69.1482 78.3784 69.1332C78.9197 69.1332 79.5813 69.7647 79.5512 70.306C79.5212 70.9075 79.0701 71.4939 78.3634 71.4638C77.6868 71.4488 77.2958 71.0127 77.2056 70.3211Z" fill="#FFB700"/>
<path d="M22.4587 67.9454C23.1053 67.9754 23.6015 68.5167 23.6315 69.1031C23.6466 69.6896 23.0752 70.276 22.4738 70.276C21.9024 70.276 21.3009 69.7798 21.3009 69.1182C21.316 68.4867 21.7971 68.0205 22.4587 67.9454Z" fill="#FFB700"/>
<path d="M86.0018 58.4274C85.9867 59.1041 85.4755 59.5852 84.859 59.6003C84.2576 59.6153 83.7012 59.0589 83.7012 58.4425C83.6862 57.826 84.3027 57.2997 84.829 57.2847C85.3252 57.2696 85.9867 57.7207 86.0018 58.4274Z" fill="#FFB700"/>
<path d="M34.7583 79.6285C34.7734 80.2299 34.2622 80.7712 33.6306 80.7712C33.3449 80.7712 33.0743 80.7111 32.8337 80.5006C32.5781 80.2751 32.4578 79.9443 32.4428 79.6586C32.4277 79.3879 32.548 79.0872 32.7736 78.8616C33.0141 78.6211 33.2998 78.5158 33.6006 78.5008C34.202 78.4707 34.7433 79.027 34.7583 79.6285Z" fill="#FFB700"/>
<path d="M53.719 15.2133C53.0875 15.2284 52.5913 14.6871 52.6214 14.0706C52.6364 13.4391 53.0574 12.9429 53.7491 12.9579C54.3656 12.9729 54.9069 13.4992 54.8618 14.0856C54.8317 14.657 54.4257 15.2434 53.719 15.2133Z" fill="#FFB700"/>
<path d="M21.2107 34.0838C21.1656 34.7604 20.7446 35.2115 20.0529 35.2265C19.4815 35.2416 18.8651 34.6552 18.9102 34.0838C18.9553 33.4974 19.3763 32.911 20.083 32.926C20.6694 32.9561 21.1957 33.4072 21.2107 34.0838Z" fill="#FFB700"/>
<path d="M19.0004 63.0736C19.5267 63.0285 20.1281 63.4194 20.1131 64.1412C20.1131 64.8329 19.6319 65.2238 19.0154 65.2388C18.3839 65.2539 17.9178 64.7727 17.9027 64.1713C17.8877 63.5097 18.4591 63.0285 19.0004 63.0736Z" fill="#FFB700"/>
<path d="M17.4066 54.9841C17.4517 55.5856 16.9705 56.0667 16.3239 56.0818C15.6774 56.1118 15.2113 55.5104 15.1962 54.9992C15.1662 54.3827 15.7826 53.8865 16.2939 53.8865C16.8502 53.9015 17.4667 54.3225 17.4066 54.9841Z" fill="#FFB700"/>
<path d="M26.9997 73.9448C27.0147 74.5162 26.6087 75.0575 25.902 75.0274C25.2855 74.9973 24.8495 74.6064 24.8344 73.9298C24.8194 73.193 25.3607 72.8622 25.9471 72.8472C26.6238 72.8472 27.0448 73.3434 26.9997 73.9448Z" fill="#FFB700"/>
<path d="M41.5848 16.0554C41.5848 16.6718 41.1187 17.1229 40.5022 17.1229C39.8556 17.1229 39.4346 16.6718 39.4346 16.0103C39.4346 15.3938 39.9007 14.9427 40.5323 14.9577C41.1187 14.9577 41.5848 15.4539 41.5848 16.0554Z" fill="#FFB700"/>
<path d="M71.6121 77.9895C71.582 77.358 72.0482 76.922 72.6647 76.9069C73.3413 76.8919 73.7322 77.4332 73.7473 77.9745C73.7623 78.576 73.2661 79.0722 72.6797 79.0571C72.1233 79.0571 71.567 78.6511 71.6121 77.9895Z" fill="#FFB700"/>
<path d="M77.4762 25.9793C77.9875 25.889 78.5889 26.5055 78.5739 27.0468C78.5589 27.513 78.0175 28.1294 77.4913 28.1144C76.9349 28.0994 76.3636 27.5731 76.3936 27.0468C76.4237 26.4003 76.8297 25.9793 77.4762 25.9793Z" fill="#FFB700"/>
<path d="M30.2776 18.7468C30.1873 18.1755 30.8489 17.6342 31.3451 17.6642C31.9315 17.6943 32.3826 18.1304 32.3977 18.7318C32.3977 19.3784 31.9766 19.7843 31.3451 19.8144C30.7587 19.8445 30.2174 19.3032 30.2776 18.7468Z" fill="#FFB700"/>
<path d="M80.9646 32.8659C80.4985 32.911 79.8971 32.4599 79.882 31.8584C79.882 31.2269 80.4233 30.7909 80.9346 30.7758C81.4458 30.7457 81.9721 31.2419 81.9871 31.8133C82.0021 32.3997 81.4308 32.926 80.9646 32.8659Z" fill="#FFB700"/>
<path d="M87.3701 50.1725C87.3701 50.7138 86.8588 51.2401 86.3326 51.2401C85.8213 51.2401 85.2951 50.6838 85.28 50.1725C85.265 49.6312 85.9116 49.0899 86.3326 49.105C86.8889 49.12 87.3701 49.6162 87.3701 50.1725Z" fill="#FFB700"/>
<path d="M68.9056 81.4328C68.9357 82.0794 68.3342 82.4703 67.8831 82.4854C67.3418 82.5004 66.8456 82.0493 66.8306 81.4479C66.8156 80.8765 67.2967 80.3953 67.8531 80.3953C68.3192 80.4104 68.9206 80.8164 68.9056 81.4328Z" fill="#FFB700"/>
<path d="M58.696 85.1919C58.1246 85.237 57.6284 84.6055 57.6284 84.1544C57.6435 83.6732 58.1246 83.1019 58.681 83.1019C59.1321 83.1019 59.7485 83.568 59.7335 84.1394C59.7335 84.7107 59.2674 85.1769 58.696 85.1919Z" fill="#FFB700"/>
<path d="M62.1543 16.6117C61.6281 16.5967 61.1168 16.1606 61.1168 15.5892C61.1319 14.9878 61.598 14.5668 62.1694 14.5517C62.6806 14.5367 63.2219 15.078 63.1918 15.5892C63.1467 16.1155 62.7708 16.5816 62.1543 16.6117Z" fill="#FFB700"/>
<path d="M21.8573 29.8586C21.8122 30.4149 21.4363 30.851 20.8348 30.8811C20.3236 30.9111 19.7973 30.3698 19.7973 29.8586C19.7973 29.3624 20.3085 28.8512 20.8198 28.8361C21.3009 28.8361 21.8422 29.3474 21.8573 29.8586Z" fill="#FFB700"/>
<path d="M85.265 36.7903C85.2049 37.3918 84.7989 37.7977 84.2275 37.8128C83.7163 37.8278 83.205 37.2715 83.2201 36.7602C83.2351 36.249 83.7463 35.7378 84.2425 35.7378C84.7538 35.7528 85.265 36.2791 85.265 36.7903Z" fill="#FFB700"/>
<path d="M16.5796 59.2243C16.5645 59.6905 16.0232 60.2468 15.5571 60.2468C15.0759 60.2468 14.5196 59.6754 14.5346 59.1792C14.5497 58.668 15.091 58.0966 15.5721 58.1568C16.1435 58.2169 16.5645 58.6379 16.5796 59.2243Z" fill="#FFB700"/>
<path d="M28.368 78.8917C28.368 78.3655 28.8641 77.8542 29.3904 77.8542C29.8866 77.8542 30.4279 78.3805 30.4129 78.8917C30.4129 79.433 29.9167 79.9142 29.3754 79.8991C28.8341 79.8841 28.368 79.418 28.368 78.8917Z" fill="#FFB700"/>
<path d="M74.9802 22.0999C75.0253 22.6112 74.484 23.0322 73.9578 23.0021C73.4315 22.972 73.0556 22.6262 73.0857 22.0398C73.1007 21.4534 73.4165 21.1075 74.0179 21.0925C74.5743 21.0775 75.0404 21.5737 74.9802 22.0999Z" fill="#FFB700"/>
<path d="M26.3381 23.1224C25.8569 23.1675 25.4058 22.7164 25.4509 22.145C25.496 21.6188 25.887 21.2429 26.4283 21.2429C26.8493 21.2429 27.3455 21.6639 27.3305 22.2352C27.3154 22.7916 26.8192 23.1825 26.3381 23.1224Z" fill="#FFB700"/>
<path d="M49.5239 12.4166C50.0502 12.3565 50.4562 12.8526 50.4712 13.3037C50.4862 13.815 50.0351 14.2961 49.539 14.2961C49.0728 14.2961 48.5917 13.7999 48.5917 13.3488C48.5616 12.8376 49.0578 12.3565 49.5239 12.4166Z" fill="#FFB700"/>
<path d="M85.0094 62.6676C85.0094 63.2089 84.6485 63.5247 84.0771 63.5698C83.5809 63.5999 83.1299 63.1187 83.175 62.6526C83.205 62.0963 83.5659 61.7204 84.1223 61.7354C84.6335 61.7354 85.0094 62.1414 85.0094 62.6676Z" fill="#FFB700"/>
<path d="M86.0619 45.9624C86.0168 45.4512 86.4829 45.0602 86.9491 45.0602C87.4453 45.0753 87.8512 45.4512 87.8663 45.9624C87.8663 46.3533 87.4753 46.8796 86.9641 46.8646C86.4529 46.8495 86.0619 46.4736 86.0619 45.9624Z" fill="#FFB700"/>
<path d="M66.3645 15.4539C66.9058 15.5141 67.2065 15.7997 67.2366 16.3411C67.2516 16.8222 66.8306 17.2282 66.3494 17.2282C65.8984 17.2282 65.4473 16.7771 65.4623 16.326C65.4773 15.8599 65.8833 15.4539 66.3645 15.4539Z" fill="#FFB700"/>
<path d="M83.2351 67.81C82.769 67.795 82.4683 67.5093 82.4081 66.953C82.363 66.562 82.6036 66.0959 82.9344 65.9906C83.4757 65.8252 84.002 65.9906 84.1974 66.3666C84.2425 66.4568 84.2425 66.4868 84.1824 66.5771C84.0771 66.7425 84.002 66.9079 83.8516 67.0432C83.7614 67.1334 83.6561 67.3138 83.6261 67.4943C83.5809 67.7198 83.4306 67.81 83.2351 67.81Z" fill="#FFB700"/>
<path d="M45.4792 13.6496C44.8326 13.6796 44.4266 13.0632 44.6071 12.4166C44.6672 12.1911 44.7574 12.1459 44.998 12.1459C45.1634 12.1459 45.3288 12.1459 45.4942 12.1459C45.5844 12.1459 45.6746 12.1459 45.7498 12.0708C45.8701 11.9505 46.0054 11.9956 46.1107 12.1159C46.3663 12.3865 46.4265 12.7023 46.3212 13.0481C46.2009 13.424 45.8851 13.6345 45.4792 13.6496Z" fill="#FFB700"/>
<path d="M37.1942 15.4238C37.2093 15.8298 36.7431 16.326 36.3221 16.311C35.7808 16.2959 35.5102 15.9651 35.435 15.4689C35.4049 15.2284 35.5252 15.0329 35.6605 14.8525C35.8259 14.6269 36.1116 14.6269 36.3221 14.5818C36.698 14.5066 37.1792 15.0179 37.1942 15.4238Z" fill="#FFB700"/>
<path d="M16.1585 37.5722C16.1585 38.2037 15.512 38.73 14.8955 38.6097C14.7451 38.5796 14.685 38.4593 14.5647 38.3992C14.5346 38.3841 14.5346 38.324 14.5647 38.309C14.685 38.2488 14.6249 38.1135 14.67 38.0383C14.7902 37.8278 14.8053 37.5872 14.8955 37.3617C14.9707 37.1512 15.091 36.9407 15.106 36.7151C15.121 36.4745 15.2263 36.4144 15.4518 36.5197C15.8127 36.655 16.2187 37.1812 16.1585 37.5722Z" fill="#FFB700"/>
<path d="M13.0009 46.3383C13.016 46.203 12.9859 46.0677 13.1062 45.9474C13.2114 45.8271 13.1513 45.6166 13.1513 45.4512C13.1663 45.1053 13.1964 45.0903 13.5422 45.0452C13.9783 45.0001 14.2339 45.2407 14.4595 45.5414C14.5948 45.7068 14.5196 46.2331 14.3993 46.4285C14.1888 46.7593 13.9181 46.9247 13.5122 46.8796C13.0912 46.8495 13.0009 46.7744 13.0009 46.3383Z" fill="#FFB700"/>
<path d="M41.2841 84.4401C41.675 84.395 41.9006 84.6656 42.096 84.9663C42.2464 85.2069 42.1712 85.7482 41.9607 85.9437C41.9006 86.0038 41.8103 86.1692 41.69 85.9888C41.6449 85.9287 41.5547 85.9587 41.4795 85.9587C41.3292 85.9587 41.1788 85.9888 41.0585 85.8385C41.0134 85.7933 40.8781 85.8084 40.7879 85.8084C40.4571 85.7933 40.3518 85.6881 40.3518 85.3573C40.3368 84.8611 40.7428 84.4401 41.2841 84.4401Z" fill="#FFB700"/>
<path d="M22.7895 73.3283C22.8046 73.7042 22.6091 73.9598 22.3384 74.1703C22.2632 74.2305 22.2181 74.2155 22.158 74.1403C21.9475 73.8847 21.6468 73.7193 21.5265 73.3734C21.4663 73.208 21.2558 73.0877 21.1205 72.9374C20.925 72.7269 20.9401 72.5615 21.1656 72.4261C21.5114 72.2307 21.8573 72.1856 22.2181 72.3961C22.564 72.6216 22.7745 72.9073 22.7895 73.3283Z" fill="#FFB700"/>
<path d="M77.6266 75.3432C77.0853 75.3281 76.8447 74.9823 76.7996 74.5312C76.7545 74.1403 77.2507 73.6591 77.6266 73.6591C78.0175 73.6591 78.4987 74.1553 78.4686 74.5312C78.4386 74.8921 78.1078 75.3582 77.6266 75.3432Z" fill="#FFB700"/>
<path d="M49.539 86.9962C49.2533 86.9962 48.9676 86.9962 48.6668 86.9962C48.5165 86.9962 48.4563 86.9511 48.4563 86.7857C48.4263 86.2745 48.9225 85.8535 49.3134 85.8084C49.8547 85.7332 50.2607 85.9287 50.5163 86.4249C50.5163 86.4399 50.5313 86.4399 50.5313 86.4549C50.5765 86.6053 50.6216 86.7707 50.5614 86.906C50.5013 87.0564 50.3359 86.9812 50.2005 86.9812C49.99 87.0113 49.7645 86.9962 49.539 86.9962Z" fill="#FFB700"/>
<path d="M45.389 85.3122C45.825 85.2671 46.0355 85.4926 46.2159 85.7482C46.3513 85.9587 46.2761 86.47 46.1107 86.6203C46.0054 86.7256 45.9152 86.891 45.6746 86.7256C45.5544 86.6354 45.3288 86.7106 45.1484 86.6955C44.8326 86.6955 44.7725 86.6354 44.6973 86.3046C44.6371 85.9738 44.6973 85.7182 44.9379 85.4625C45.1183 85.3122 45.2837 85.3423 45.389 85.3122Z" fill="#FFB700"/>
<path d="M14.3843 40.9704C14.8354 40.9854 15.091 41.226 15.106 41.6771C15.121 41.9778 15.0759 42.2334 14.8053 42.4289C14.4745 42.6544 13.843 42.5492 13.6776 42.1883C13.6024 42.053 13.5723 41.8725 13.6926 41.7523C13.7828 41.662 13.7678 41.5869 13.7678 41.4966C13.7828 41.1057 13.8881 41.0004 14.279 40.9704C14.3091 40.9704 14.3542 40.9704 14.3843 40.9704Z" fill="#FFB700"/>
<path d="M18.6395 69.2685C18.3839 69.0129 18.2486 68.7423 18.0982 68.4566C17.993 68.2761 17.8426 68.0957 17.7223 67.9002C17.6171 67.7348 17.6772 67.5694 17.8576 67.4943C18.2787 67.3138 18.8801 67.5093 19.1207 67.9002C19.3312 68.231 19.2259 68.8325 18.8951 69.058C18.8049 69.1182 18.7297 69.1934 18.6395 69.2685Z" fill="#FFB700"/>
<path d="M22.4437 25.6635C22.4136 25.9642 22.2933 26.2349 22.0227 26.4003C21.737 26.5807 21.4363 26.5807 21.1355 26.4003C20.9701 26.3101 20.9401 26.1447 21.0453 25.9793C21.0604 25.9492 21.0904 25.9191 21.1205 25.9041C21.3911 25.6334 21.5866 25.2876 21.8573 25.0019C21.9475 24.9117 22.0076 24.8816 22.0828 24.9568C22.2632 25.1523 22.4136 25.3778 22.4437 25.6635Z" fill="#FFB700"/>
<path d="M62.3197 85.1919C61.9889 85.2069 62.004 85.2069 61.9889 84.9363C61.9589 84.4852 62.2596 84.1694 62.6505 84.0491C63.0866 83.9138 63.5527 84.1394 63.7331 84.5303C63.7933 84.6356 63.8234 84.7107 63.6279 84.7859C63.3422 84.9062 63.0565 85.0115 62.7558 85.0566C62.5904 85.0716 62.4851 85.3122 62.3197 85.1919Z" fill="#FFB700"/>
<path d="M13.0761 51.18C12.9859 51.0898 13.0009 50.9845 13.0009 50.8943C13.0009 50.4131 13.0009 49.932 13.0009 49.4658C13.0009 49.135 13.0611 49.12 13.3317 49.2854C13.6475 49.4658 13.8881 49.7515 13.9031 50.1575C13.9181 50.5635 13.7076 50.8492 13.3768 51.0597C13.2866 51.0898 13.1814 51.1198 13.0761 51.18Z" fill="#FFB700"/>
<path d="M36.1868 84.2446C36.5777 83.5379 37.51 83.4928 37.916 84.1845C38.0212 84.3649 38.0212 84.6055 37.9761 84.816C37.931 84.9663 37.7656 84.9513 37.7205 84.8912C37.54 84.7107 37.2844 84.7709 37.089 84.6356C36.8183 84.4401 36.4725 84.41 36.1868 84.2446Z" fill="#FFB700"/>
<path d="M81.942 28.6256C81.4308 28.8211 81.0098 28.7008 80.7391 28.2648C80.5737 27.9941 80.5737 27.4528 80.7692 27.2273C80.8895 27.0919 81.0248 27.107 81.0699 27.2724C81.1 27.3776 81.1601 27.4227 81.2203 27.4829C81.3556 27.6332 81.4759 27.7986 81.5661 27.9791C81.6864 28.2046 81.8668 28.3851 81.942 28.6256Z" fill="#FFB700"/>
<path d="M87.5806 42.2485C87.5655 42.3387 87.6257 42.489 87.5054 42.5341C87.3701 42.5792 87.2648 42.5191 87.1596 42.4139C86.7987 42.0981 86.7536 41.5267 87.0694 41.1658C87.1145 41.1207 87.1596 41.0606 87.2498 41.1057C87.325 41.1508 87.4001 41.1658 87.3851 41.2711C87.3851 41.4064 87.3851 41.5267 87.3851 41.662C87.3851 41.7222 87.3851 41.8124 87.4152 41.8274C87.6257 41.9177 87.5655 42.0981 87.5806 42.2485Z" fill="#FFB700"/>
<path d="M70.8453 17.6342C70.8302 17.7244 70.6348 17.8447 70.5295 17.8146C70.2438 17.7244 69.9882 17.5891 69.883 17.2733C69.8679 17.2282 69.8378 17.1831 69.898 17.153C69.9581 17.1229 70.0333 17.0929 70.0634 17.138C70.2438 17.3785 70.5295 17.4537 70.7851 17.559C70.8302 17.574 70.8453 17.6041 70.8453 17.6342Z" fill="#FFB700"/>
<path d="M15.8428 63.4044C15.8277 63.4946 15.8277 63.5698 15.7526 63.5548C15.6924 63.5548 15.5721 63.5548 15.5872 63.4646C15.6323 63.254 15.4518 63.1187 15.4368 62.9383C15.4368 62.8631 15.4067 62.818 15.3165 62.7879C15.2113 62.7428 15.2263 62.6526 15.2864 62.5774C15.3616 62.4872 15.3917 62.5774 15.4518 62.6225C15.7526 62.803 15.7375 63.1488 15.8428 63.4044Z" fill="#FFB700"/>
<path d="M26.0073 77.9595C25.7968 77.7189 25.5411 77.5685 25.2705 77.4031C25.2103 77.3731 25.1652 77.343 25.1953 77.2678C25.2103 77.2227 25.2705 77.2227 25.3156 77.2227C25.6314 77.2077 26.0073 77.5836 26.0073 77.9595Z" fill="#FFB700"/>
<path d="M53.3281 86.891C53.5085 86.8158 53.6889 86.7557 53.8844 86.8158C53.9446 86.8308 54.0047 86.8459 53.9897 86.9211C53.9897 86.9812 53.9295 86.9812 53.8844 86.9812C53.704 86.9812 53.5235 86.9812 53.3281 86.9812C53.3431 86.9662 53.3281 86.9211 53.3281 86.891Z" fill="#FFB700"/>
<path d="M16.3691 33.8582C16.339 33.6177 16.5044 33.4372 16.5044 33.1365C16.6547 33.5124 16.6547 33.5726 16.3691 33.8582Z" fill="#FFB700"/>
<path d="M41.5397 12.9429C41.4194 13.018 41.2841 13.018 41.1036 12.988C41.254 12.8075 41.4044 12.8978 41.5397 12.9429Z" fill="#FFB700"/>
<path d="M81.8217 70.5015C81.8217 70.5617 81.8067 70.6068 81.7465 70.6068C81.6864 70.6068 81.6713 70.5617 81.6713 70.5165C81.6864 70.4564 81.7014 70.3812 81.7766 70.3963C81.8217 70.3963 81.8217 70.4564 81.8217 70.5015Z" fill="#FFB700"/>
</svg>
