<svg width="100" height="100" viewBox="0 0 100 100" fill="none" xmlns="http://www.w3.org/2000/svg">
<path d="M86.4967 50.5C86.2291 70.7041 69.7676 87 49.5 87C29.2324 87 12.7709 70.7041 12.5033 50.5H86.4967Z" stroke="black"/>
<path d="M77.4958 50.5C77.2336 66.0174 64.7919 78.5 49.5 78.5C34.2081 78.5 21.7664 66.0174 21.5042 50.5H77.4958Z" stroke="black"/>
<path d="M69.4942 50.5C69.2351 61.6017 60.3717 70.5 49.5 70.5C38.6283 70.5 29.7649 61.6017 29.5058 50.5H69.4942Z" stroke="black"/>
<path d="M61.4906 50.5C61.2384 57.1889 55.9492 62.5 49.5 62.5C43.0508 62.5 37.7616 57.1889 37.5094 50.5H61.4906Z" stroke="black"/>
</svg>
