<svg width="100" height="100" viewBox="0 0 100 100" fill="none" xmlns="http://www.w3.org/2000/svg">
<mask id="path-1-inside-1_32_50" fill="white">
<path d="M88 50.5C88 60.4456 84.0491 69.9839 77.0165 77.0165C69.9839 84.0491 60.4456 88 50.5 88C40.5544 88 31.0161 84.0491 23.9835 77.0165C16.9509 69.9839 13 60.4456 13 50.5L31.75 50.5C31.75 55.4728 33.7254 60.2419 37.2417 63.7583C40.7581 67.2746 45.5272 69.25 50.5 69.25C55.4728 69.25 60.2419 67.2746 63.7583 63.7583C67.2746 60.2419 69.25 55.4728 69.25 50.5H88Z"/>
</mask>
<path d="M88 50.5C88 60.4456 84.0491 69.9839 77.0165 77.0165C69.9839 84.0491 60.4456 88 50.5 88C40.5544 88 31.0161 84.0491 23.9835 77.0165C16.9509 69.9839 13 60.4456 13 50.5L31.75 50.5C31.75 55.4728 33.7254 60.2419 37.2417 63.7583C40.7581 67.2746 45.5272 69.25 50.5 69.25C55.4728 69.25 60.2419 67.2746 63.7583 63.7583C67.2746 60.2419 69.25 55.4728 69.25 50.5H88Z" stroke="#F90F08" stroke-width="40" mask="url(#path-1-inside-1_32_50)"/>
</svg>
