<svg width="100" height="100" viewBox="0 0 100 100" fill="none" xmlns="http://www.w3.org/2000/svg">
<mask id="mask0_32_60" style="mask-type:alpha" maskUnits="userSpaceOnUse" x="22" y="13" width="57" height="75">
<path d="M79 50.5L50.5 13L22 50.5L50.5 88L79 50.5Z" fill="black"/>
</mask>
<g mask="url(#mask0_32_60)">
<rect x="21" width="2" height="100" fill="#006B4C"/>
<rect x="25" width="2" height="100" fill="#006B4C"/>
<rect x="29" width="2" height="100" fill="#006B4C"/>
<rect x="33" width="2" height="100" fill="#006B4C"/>
<rect x="37" width="2" height="100" fill="#006B4C"/>
<rect x="41" width="2" height="100" fill="#006B4C"/>
<rect x="45" width="2" height="100" fill="#006B4C"/>
<rect x="49" width="2" height="100" fill="#006B4C"/>
<rect x="53" width="2" height="100" fill="#006B4C"/>
<rect x="57" width="2" height="100" fill="#006B4C"/>
<rect x="61" width="2" height="100" fill="#006B4C"/>
<rect x="65" width="2" height="100" fill="#006B4C"/>
<rect x="69" width="2" height="100" fill="#006B4C"/>
<rect x="73" width="2" height="100" fill="#006B4C"/>
<rect x="77" width="2" height="100" fill="#006B4C"/>
</g>
</svg>
