<svg width="100" height="100" viewBox="0 0 100 100" fill="none" xmlns="http://www.w3.org/2000/svg">
<path d="M87.0003 12L79.9248 19.0755H87.0003V12Z" fill="#69E108"/>
<path d="M79.4534 19.5472L72.3779 26.6227H79.4534V19.5472Z" fill="#69E108"/>
<path d="M87.0003 19.5472L79.9248 26.6227H87.0003V19.5472Z" fill="#69E108"/>
<path d="M71.9056 27.0944L64.8301 34.1698H71.9056V27.0944Z" fill="#69E108"/>
<path d="M79.4534 27.0944L72.3779 34.1698H79.4534V27.0944Z" fill="#69E108"/>
<path d="M87.0003 27.0944L79.9248 34.1698H87.0003V27.0944Z" fill="#69E108"/>
<path d="M64.3587 34.6415L57.2832 41.717H64.3587V34.6415Z" fill="#69E108"/>
<path d="M71.9056 34.6415L64.8301 41.717H71.9056V34.6415Z" fill="#69E108"/>
<path d="M79.4534 34.6415L72.3779 41.717H79.4534V34.6415Z" fill="#69E108"/>
<path d="M87.0003 34.6415L79.9248 41.717H87.0003V34.6415Z" fill="#69E108"/>
<path d="M56.8108 42.1887L49.7354 49.2642H56.8108V42.1887Z" fill="#69E108"/>
<path d="M64.3587 42.1887L57.2832 49.2642H64.3587V42.1887Z" fill="#69E108"/>
<path d="M71.9056 42.1887L64.8301 49.2642H71.9056V42.1887Z" fill="#69E108"/>
<path d="M79.4534 42.1887L72.3779 49.2642H79.4534V42.1887Z" fill="#69E108"/>
<path d="M87.0003 42.1887L79.9248 49.2642H87.0003V42.1887Z" fill="#69E108"/>
<path d="M49.2639 49.7358L42.1885 56.8113H49.2639V49.7358Z" fill="#69E108"/>
<path d="M56.8108 49.7358L49.7354 56.8113H56.8108V49.7358Z" fill="#69E108"/>
<path d="M64.3587 49.7358L57.2832 56.8113H64.3587V49.7358Z" fill="#69E108"/>
<path d="M71.9056 49.7358L64.8301 56.8113H71.9056V49.7358Z" fill="#69E108"/>
<path d="M79.4534 49.7358L72.3779 56.8113H79.4534V49.7358Z" fill="#69E108"/>
<path d="M87.0003 49.7358L79.9248 56.8113H87.0003V49.7358Z" fill="#69E108"/>
<path d="M41.7171 57.283L34.6416 64.3585H41.7171V57.283Z" fill="#69E108"/>
<path d="M49.2639 57.283L42.1885 64.3585H49.2639V57.283Z" fill="#69E108"/>
<path d="M56.8108 57.283L49.7354 64.3585H56.8108V57.283Z" fill="#69E108"/>
<path d="M64.3587 57.283L57.2832 64.3585H64.3587V57.283Z" fill="#69E108"/>
<path d="M71.9056 57.283L64.8301 64.3585H71.9056V57.283Z" fill="#69E108"/>
<path d="M79.4534 57.283L72.3779 64.3585H79.4534V57.283Z" fill="#69E108"/>
<path d="M87.0003 57.283L79.9248 64.3585H87.0003V57.283Z" fill="#69E108"/>
<path d="M34.1702 64.8302L27.0947 71.9057H34.1702V64.8302Z" fill="#69E108"/>
<path d="M41.7171 64.8302L34.6416 71.9057H41.7171V64.8302Z" fill="#69E108"/>
<path d="M49.2639 64.8302L42.1885 71.9057H49.2639V64.8302Z" fill="#69E108"/>
<path d="M56.8108 64.8302L49.7354 71.9057H56.8108V64.8302Z" fill="#69E108"/>
<path d="M64.3587 64.8302L57.2832 71.9057H64.3587V64.8302Z" fill="#69E108"/>
<path d="M71.9056 64.8302L64.8301 71.9057H71.9056V64.8302Z" fill="#69E108"/>
<path d="M79.4534 64.8302L72.3779 71.9057H79.4534V64.8302Z" fill="#69E108"/>
<path d="M87.0003 64.8302L79.9248 71.9057H87.0003V64.8302Z" fill="#69E108"/>
<path d="M26.6223 72.3773L19.5469 79.4528H26.6223V72.3773Z" fill="#69E108"/>
<path d="M34.1702 72.3773L27.0947 79.4528H34.1702V72.3773Z" fill="#69E108"/>
<path d="M41.7171 72.3773L34.6416 79.4528H41.7171V72.3773Z" fill="#69E108"/>
<path d="M49.2639 72.3773L42.1885 79.4528H49.2639V72.3773Z" fill="#69E108"/>
<path d="M56.8108 72.3773L49.7354 79.4528H56.8108V72.3773Z" fill="#69E108"/>
<path d="M64.3587 72.3773L57.2832 79.4528H64.3587V72.3773Z" fill="#69E108"/>
<path d="M71.9056 72.3773L64.8301 79.4528H71.9056V72.3773Z" fill="#69E108"/>
<path d="M79.4534 72.3773L72.3779 79.4528H79.4534V72.3773Z" fill="#69E108"/>
<path d="M87.0003 72.3773L79.9248 79.4528H87.0003V72.3773Z" fill="#69E108"/>
<path d="M19.0755 79.9245L12 87H19.0755V79.9245Z" fill="#69E108"/>
<path d="M26.6223 79.9245L19.5469 87H26.6223V79.9245Z" fill="#69E108"/>
<path d="M34.1702 79.9245L27.0947 87H34.1702V79.9245Z" fill="#69E108"/>
<path d="M41.7171 79.9245L34.6416 87H41.7171V79.9245Z" fill="#69E108"/>
<path d="M49.2639 79.9245L42.1885 87H49.2639V79.9245Z" fill="#69E108"/>
<path d="M56.8108 79.9245L49.7354 87H56.8108V79.9245Z" fill="#69E108"/>
<path d="M64.3587 79.9245L57.2832 87H64.3587V79.9245Z" fill="#69E108"/>
<path d="M71.9056 79.9245L64.8301 87H71.9056V79.9245Z" fill="#69E108"/>
<path d="M79.4534 79.9245L72.3779 87H79.4534V79.9245Z" fill="#69E108"/>
<path d="M87.0003 79.9245L79.9248 87H87.0003V79.9245Z" fill="#69E108"/>
</svg>
